<?xml version="1.0" encoding="UTF-8"?>
<svg xmlns="http://www.w3.org/2000/svg" xmlns:xlink="http://www.w3.org/1999/xlink" width="490px" height="488px" viewBox="0 0 489 488" version="1.1">
<g id="surface1">
<path style=" stroke:none;fill-rule:nonzero;fill:rgb(96.078432%,27.843139%,38.039216%);fill-opacity:1;" d="M 225.644531 55.976562 C 229.417969 58.691406 229.417969 58.691406 234 58.1875 C 240.199219 56.433594 245.980469 54.101562 251.878906 51.527344 C 271.660156 44.28125 296 46.804688 315.007812 55.015625 C 322.152344 58.617188 326.730469 62.335938 331.820312 68.496094 C 338.027344 75.140625 344.105469 76.386719 352.820312 77.550781 C 378.546875 80.992188 397.636719 94.132812 413.945312 114.191406 C 425.222656 129.59375 430.730469 146.28125 430.992188 165.511719 C 431.390625 170.664062 431.851562 172.589844 435.464844 176.363281 C 438.0625 178.316406 440.710938 180.207031 443.398438 182.039062 C 453.957031 189.488281 462.859375 200.441406 465.714844 213.1875 C 467.742188 232.261719 467.429688 249.894531 455.929688 265.828125 C 446.335938 277.480469 435.113281 285.027344 420.804688 289.800781 C 420.800781 291.226562 420.792969 292.65625 420.785156 294.125 C 420.738281 299.496094 420.65625 304.863281 420.550781 310.234375 C 420.515625 312.542969 420.488281 314.855469 420.480469 317.164062 C 420.40625 333.203125 419.214844 347.265625 407.933594 359.582031 C 399.191406 367.828125 389.90625 371.40625 378.003906 372.371094 C 375.539062 372.574219 375.539062 372.574219 373.027344 372.785156 C 371.15625 372.929688 371.15625 372.929688 369.246094 373.078125 C 369.222656 375.472656 369.222656 375.472656 369.199219 377.914062 C 369.132812 383.886719 369.023438 389.855469 368.898438 395.828125 C 368.851562 398.402344 368.816406 400.976562 368.792969 403.554688 C 368.507812 433.3125 368.507812 433.3125 357.414062 445.101562 C 345.96875 453.609375 335.59375 458.085938 321.011719 456.355469 C 309.636719 453.875 300.429688 449.574219 293.835938 439.695312 C 287.265625 427.753906 286.523438 417.449219 286.570312 403.980469 C 286.542969 401.898438 286.519531 399.816406 286.492188 397.667969 C 286.433594 392.1875 286.410156 386.707031 286.402344 381.222656 C 286.386719 375.605469 286.324219 369.988281 286.265625 364.375 C 286.164062 353.394531 286.105469 342.417969 286.082031 331.441406 C 283.621094 331.628906 281.160156 331.84375 278.699219 332.066406 C 277.332031 332.179688 275.960938 332.296875 274.550781 332.417969 C 273.414062 332.644531 272.28125 332.871094 271.113281 333.105469 C 269.09375 337.148438 269.265625 339.738281 269.273438 344.25 C 269.25 345.824219 269.222656 347.398438 269.199219 349.023438 C 269.160156 352.3125 269.148438 355.605469 269.171875 358.898438 C 268.898438 371.152344 265.730469 378.730469 257.804688 388.066406 C 248.847656 396.589844 238.695312 401.414062 226.203125 401.390625 C 212.324219 399.484375 202.925781 393.792969 193.796875 383.292969 C 189.277344 376.925781 187.542969 371.042969 187.417969 363.28125 C 187.386719 361.714844 187.351562 360.148438 187.320312 358.535156 C 187.300781 356.863281 187.28125 355.195312 187.261719 353.476562 C 187.226562 351.75 187.195312 350.023438 187.164062 348.246094 C 187.0625 342.75 186.984375 337.25 186.910156 331.753906 C 186.847656 328.019531 186.78125 324.285156 186.714844 320.550781 C 186.554688 311.414062 186.414062 302.273438 186.285156 293.132812 C 178.550781 292.683594 178.550781 292.683594 171.316406 294.796875 C 168.898438 304.632812 169.199219 315.007812 169.085938 325.089844 C 168.734375 335.40625 168.734375 335.40625 164.949219 340.644531 C 159.804688 344.140625 155.875 344.65625 149.695312 344.765625 C 143.75 342.117188 141.691406 340.242188 138.050781 334.769531 C 137.601562 330.261719 137.601562 330.261719 137.539062 324.855469 C 137.496094 322.894531 137.453125 320.9375 137.410156 318.917969 C 137.351562 314.800781 137.300781 310.683594 137.253906 306.566406 C 136.980469 294.234375 136.242188 285.421875 129.320312 275.019531 C 121.035156 269.6875 108.90625 271.398438 99.378906 271.585938 C 74.695312 271.742188 53.136719 267.433594 34.5 249.777344 C 20.152344 233.542969 13.679688 214.195312 14.332031 192.734375 C 15.945312 177.03125 21.421875 165.09375 31.601562 153.230469 C 32.835938 151.578125 34.070312 149.929688 35.34375 148.230469 C 36.304688 147.132812 37.265625 146.035156 38.253906 144.902344 C 39.351562 144.902344 40.449219 144.902344 41.582031 144.902344 C 41.582031 143.800781 41.582031 142.703125 41.582031 141.570312 C 43.226562 140.472656 44.875 139.371094 46.570312 138.238281 C 48.582031 133.964844 48.582031 133.964844 50.3125 128.972656 C 58.441406 108.699219 73.820312 92.542969 93.675781 83.316406 C 103.570312 79.53125 113.933594 77.378906 124.328125 75.46875 C 129.960938 73.191406 131.761719 71.417969 135.765625 67.039062 C 156.207031 45.085938 199.878906 40.390625 225.644531 55.976562 Z M 164.664062 83.277344 C 164.664062 84.925781 164.664062 86.574219 164.664062 88.273438 C 167.390625 90.984375 167.390625 90.984375 170.902344 93.582031 C 183.539062 104.316406 187.464844 118.703125 189.613281 134.90625 C 189.011719 141.441406 188.378906 144.304688 184.519531 149.6875 C 177.761719 154.582031 174.53125 154.289062 166.328125 153.230469 C 163.53125 151.445312 163.53125 151.445312 161.335938 148.230469 C 160.296875 142.570312 160.296875 142.570312 159.671875 135.949219 C 158.886719 127.621094 158.15625 121.65625 153.019531 114.921875 C 143.105469 107.085938 131.996094 105.285156 119.753906 106.59375 C 106.894531 109.671875 95.875 115.496094 86.488281 124.914062 C 86.488281 126.015625 86.488281 127.113281 86.488281 128.246094 C 87.757812 128.390625 89.023438 128.535156 90.328125 128.679688 C 100.996094 130.136719 109.210938 132.289062 118.359375 138.039062 C 121.601562 140.171875 121.601562 140.171875 126.40625 141.570312 C 128.070312 144.378906 128.070312 144.378906 129.734375 148.230469 C 131.125 150.601562 131.125 150.601562 132.542969 153.019531 C 135.152344 159.242188 134.941406 161.800781 133.0625 168.21875 C 129.378906 171.464844 129.378906 171.464844 124.847656 174.359375 C 118.269531 179.175781 118.269531 179.175781 114.824219 186.351562 C 114.078125 191.265625 114.078125 191.265625 113.894531 196 C 113.101562 199.863281 113.101562 199.863281 110.125 202.023438 C 104.320312 203.871094 99.160156 204.132812 93.144531 203.195312 C 88.984375 200.90625 88.984375 200.90625 86.488281 196.53125 C 84.277344 184.96875 87.28125 176.6875 93.148438 166.769531 C 95.382812 163.046875 95.382812 163.046875 93.144531 158.226562 C 79.496094 157.484375 69.859375 159.097656 58.734375 167.59375 C 49.136719 176.359375 45.570312 187.984375 44.738281 200.722656 C 45.023438 207.710938 47.027344 213.527344 49.898438 219.851562 C 50.6875 221.601562 51.476562 223.355469 52.289062 225.160156 C 60.65625 234.351562 74.390625 241 86.945312 241.71875 C 88.292969 241.71875 89.640625 241.722656 91.03125 241.722656 C 93.238281 241.726562 93.238281 241.726562 95.492188 241.730469 C 97.015625 241.722656 98.539062 241.714844 100.109375 241.710938 C 101.652344 241.714844 103.191406 241.722656 104.78125 241.730469 C 106.246094 241.726562 107.714844 241.726562 109.222656 241.722656 C 111.238281 241.71875 111.238281 241.71875 113.292969 241.71875 C 116.449219 241.847656 116.449219 241.847656 118.09375 239.835938 C 118.546875 237.101562 118.953125 234.359375 119.339844 231.613281 C 122.21875 215.265625 129.921875 200.296875 143.523438 190.441406 C 157.742188 181.449219 170.367188 177.796875 187.109375 176.898438 C 191.269531 176.804688 191.269531 176.804688 194.601562 174.878906 C 196.089844 171.824219 197.5 168.730469 198.863281 165.617188 C 208.035156 146.894531 222.894531 138.617188 241.589844 131.054688 C 253.6875 128.835938 268.246094 127.265625 279.429688 133.242188 C 282.992188 138.597656 283.253906 141.859375 283.523438 148.171875 C 282.335938 153.414062 280.492188 155.132812 276.101562 158.226562 C 269.949219 159.335938 263.734375 159.070312 257.503906 159.039062 C 246.9375 159.234375 240.09375 161.558594 232.027344 168.785156 C 228.179688 172.90625 226.054688 176.929688 224.019531 182.167969 C 224.730469 190.410156 228.488281 193.097656 234.554688 198.375 C 237.890625 201.570312 239.59375 203.871094 241.171875 208.191406 C 240.878906 213.773438 240.445312 218.140625 237.742188 223.078125 C 232.042969 226.207031 227.324219 226.628906 221.214844 224.847656 C 216.359375 221.34375 211.964844 217.484375 207.464844 213.53125 C 199.5 207.09375 191.441406 204.226562 181.191406 204.964844 C 169.898438 207.058594 160.1875 212.492188 153.019531 221.515625 C 147.121094 231.582031 146.878906 241.964844 149.695312 253.160156 C 152.542969 258.492188 156.296875 261.9375 161.234375 265.445312 C 167.367188 267.304688 172.070312 267.6875 178.007812 264.910156 C 185.003906 260.769531 189.804688 256.484375 194.601562 249.828125 C 199.214844 247.519531 202.964844 247.953125 208.125 247.949219 C 210.269531 247.941406 212.410156 247.9375 214.617188 247.933594 C 216.96875 247.933594 219.320312 247.9375 221.667969 247.941406 C 224.074219 247.941406 226.476562 247.941406 228.878906 247.9375 C 233.921875 247.933594 238.960938 247.9375 244.003906 247.945312 C 250.460938 247.957031 256.921875 247.949219 263.378906 247.941406 C 268.34375 247.933594 273.308594 247.9375 278.273438 247.941406 C 280.65625 247.941406 283.035156 247.941406 285.417969 247.9375 C 288.75 247.933594 292.082031 247.941406 295.414062 247.949219 C 297.308594 247.949219 299.207031 247.949219 301.160156 247.953125 C 305.316406 248.132812 308.738281 248.613281 312.695312 249.828125 C 314.660156 255.984375 314.824219 261.726562 314.355469 268.148438 C 311.3125 272.507812 309.515625 273.097656 304.378906 274.8125 C 301.605469 274.996094 298.828125 275.089844 296.050781 275.128906 C 294.359375 275.15625 292.664062 275.183594 290.921875 275.210938 C 289.097656 275.234375 287.273438 275.257812 285.394531 275.28125 C 283.519531 275.3125 281.648438 275.34375 279.722656 275.375 C 271.695312 275.503906 263.667969 275.617188 255.644531 275.730469 C 249.792969 275.816406 243.945312 275.914062 238.09375 276.007812 C 235.347656 276.042969 235.347656 276.042969 232.542969 276.078125 C 230.863281 276.105469 229.179688 276.132812 227.449219 276.164062 C 225.960938 276.183594 224.472656 276.203125 222.9375 276.226562 C 219.558594 276.105469 219.558594 276.105469 217.886719 278.144531 C 217.714844 280.824219 217.65625 283.515625 217.644531 286.203125 C 217.636719 287.921875 217.625 289.640625 217.613281 291.410156 C 217.613281 293.277344 217.609375 295.148438 217.609375 297.074219 C 217.601562 298.984375 217.597656 300.890625 217.589844 302.859375 C 217.582031 306.90625 217.578125 310.949219 217.578125 314.996094 C 217.574219 321.199219 217.546875 327.402344 217.515625 333.605469 C 217.507812 337.53125 217.507812 341.453125 217.503906 345.375 C 217.488281 348.171875 217.488281 348.171875 217.46875 351.023438 C 217.476562 353.613281 217.476562 353.613281 217.484375 356.257812 C 217.480469 357.78125 217.480469 359.304688 217.476562 360.875 C 217.632812 365.207031 217.632812 365.207031 221.214844 369.746094 C 227.035156 370.441406 227.035156 370.441406 232.855469 369.746094 C 237.03125 365.570312 236.585938 363.023438 236.644531 357.320312 C 236.640625 355.464844 236.640625 355.464844 236.636719 353.574219 C 236.671875 350.957031 236.707031 348.34375 236.742188 345.726562 C 236.78125 341.601562 236.808594 337.476562 236.816406 333.347656 C 236.832031 329.367188 236.890625 325.386719 236.949219 321.40625 C 236.941406 320.179688 236.933594 318.949219 236.925781 317.679688 C 237.035156 311.941406 237.410156 308.703125 240.898438 304.058594 C 246.125 300.289062 249.703125 299.902344 256.144531 299.796875 C 258.59375 300.546875 261.023438 301.382812 263.417969 302.292969 C 271.4375 305.230469 277.855469 305.542969 286.082031 303.125 C 290.027344 301.070312 293.792969 298.804688 297.601562 296.507812 C 301.050781 294.796875 301.050781 294.796875 306.664062 294.695312 C 311.890625 296.8125 313.222656 298.265625 316.019531 303.125 C 316.648438 308.308594 316.648438 308.308594 316.660156 314.480469 C 316.667969 315.605469 316.679688 316.734375 316.6875 317.894531 C 316.703125 320.335938 316.707031 322.777344 316.703125 325.21875 C 316.695312 329.082031 316.71875 332.945312 316.75 336.8125 C 316.820312 346.40625 316.839844 356.003906 316.859375 365.597656 C 316.878906 373.710938 316.917969 381.824219 316.984375 389.941406 C 317.007812 393.746094 317 397.546875 316.992188 401.355469 C 317.007812 403.6875 317.023438 406.023438 317.042969 408.359375 C 317.046875 410.398438 317.050781 412.433594 317.054688 414.53125 C 317.734375 420.132812 318.652344 422.480469 322.671875 426.375 C 327.664062 427.625 327.664062 427.625 332.652344 426.375 C 338.851562 419.082031 338.292969 411.835938 338.128906 402.761719 C 338.121094 400.472656 338.121094 400.472656 338.109375 398.140625 C 338.089844 394.832031 338.058594 391.527344 338.019531 388.222656 C 337.953125 382.984375 337.921875 377.746094 337.898438 372.511719 C 337.832031 359.5 337.710938 346.492188 337.589844 333.484375 C 337.492188 322.492188 337.414062 311.5 337.363281 300.507812 C 337.332031 295.355469 337.269531 290.203125 337.207031 285.054688 C 337.1875 281.882812 337.171875 278.710938 337.15625 275.539062 C 337.128906 274.113281 337.105469 272.691406 337.078125 271.222656 C 337.074219 262.292969 338.371094 256.0625 342.632812 248.164062 C 347.839844 245.558594 353.59375 245.597656 359.265625 246.5 C 362.753906 248.542969 362.753906 248.542969 365.917969 251.496094 C 366.757812 255.074219 366.757812 255.074219 366.773438 259.269531 C 366.796875 260.84375 366.816406 262.414062 366.839844 264.035156 C 366.828125 266.582031 366.828125 266.582031 366.816406 269.179688 C 366.835938 270.925781 366.855469 272.671875 366.875 274.472656 C 366.933594 280.070312 366.949219 285.664062 366.957031 291.257812 C 366.984375 296.84375 367.023438 302.425781 367.078125 308.007812 C 367.109375 311.484375 367.125 314.960938 367.121094 318.4375 C 367.132812 320.019531 367.144531 321.605469 367.15625 323.234375 C 367.160156 324.621094 367.160156 326.007812 367.164062 327.4375 C 367.691406 332.507812 368.871094 337.726562 372.570312 341.433594 C 377.421875 342.128906 377.421875 342.128906 382.550781 341.433594 C 387.300781 337.246094 387.5625 334.53125 388.179688 328.15625 C 388.214844 325.488281 388.226562 322.816406 388.214844 320.144531 C 388.242188 318.019531 388.242188 318.019531 388.269531 315.851562 C 388.328125 311.332031 388.355469 306.8125 388.371094 302.292969 C 388.398438 296.34375 388.453125 290.390625 388.527344 284.441406 C 388.519531 282.394531 388.519531 282.394531 388.511719 280.304688 C 388.585938 274.742188 388.792969 270.582031 391.449219 265.636719 C 395.496094 261.976562 399.011719 262.117188 404.382812 261.695312 C 417.304688 260.050781 426.007812 255.773438 434.214844 245.5625 C 437.027344 235.238281 438.460938 223.863281 433.769531 213.9375 C 429.597656 208.152344 425.851562 204.183594 419.144531 201.527344 C 415.824219 201.007812 415.824219 201.007812 412.488281 201.113281 C 411.390625 201.105469 410.292969 201.09375 409.164062 201.085938 C 405.089844 201.628906 402.621094 202.582031 399.183594 204.859375 C 396.671875 208.394531 396.671875 208.394531 394.714844 212.460938 C 390.933594 219.785156 390.933594 219.785156 389.203125 221.515625 C 385.578125 221.855469 385.578125 221.855469 381.09375 221.933594 C 379.625 221.976562 378.152344 222.019531 376.636719 222.0625 C 372.570312 221.515625 372.570312 221.515625 369.640625 219.324219 C 366.140625 214.554688 366.015625 210.71875 365.917969 204.859375 C 369.285156 192.1875 379.757812 182.898438 390.671875 176.324219 C 392.917969 175.207031 395.214844 174.195312 397.519531 173.214844 C 400.15625 170.574219 399.59375 167.921875 399.703125 164.261719 C 399.503906 148.800781 393.441406 134.25 382.550781 123.25 C 377.800781 119.429688 372.871094 116.273438 367.582031 113.257812 C 365.867188 112.226562 364.152344 111.195312 362.382812 110.132812 C 351.328125 105.851562 336.992188 106.253906 325.910156 109.957031 C 320.476562 112.628906 315.675781 115.566406 310.886719 119.273438 C 306.46875 122.476562 303.148438 123.027344 297.722656 123.25 C 290.132812 119.699219 290.132812 119.699219 287.746094 114.921875 C 286.789062 103.253906 286.789062 103.253906 290.449219 96.914062 C 294.792969 92.90625 298.972656 90.609375 304.378906 88.273438 C 303.308594 83.199219 303.308594 83.199219 299.921875 81.695312 C 284.464844 76.492188 271.359375 76.605469 256.296875 82.996094 C 252.679688 85.019531 250.363281 86.660156 247.828125 89.9375 C 246.792969 93.785156 246.265625 97.558594 245.703125 101.5 C 244.5 104.929688 244.5 104.929688 241.484375 107.023438 C 235.484375 109.0625 230.886719 108.761719 224.539062 108.257812 C 220.992188 105.648438 219.746094 104.011719 218.628906 99.730469 C 218.453125 98.457031 218.277344 97.183594 218.09375 95.871094 C 216.988281 90.277344 216.476562 88.546875 212.480469 84.214844 C 197.132812 75.480469 180.484375 75.964844 164.664062 83.277344 Z M 164.664062 83.277344 "/>
<path style=" stroke:none;fill-rule:nonzero;fill:rgb(96.862745%,92.156863%,93.333334%);fill-opacity:1;" d="M 214.085938 82.09375 C 219.636719 88.117188 220.324219 93.726562 221.214844 101.597656 C 222.8125 105.144531 222.8125 105.144531 226.203125 106.59375 C 234.230469 106.453125 234.230469 106.453125 240.757812 102.222656 C 243.050781 98.035156 243.050781 98.035156 245.125 92.4375 C 248.75 84.613281 252.132812 81.507812 260.164062 78.378906 C 275.527344 73.539062 288.035156 75.3125 303.1875 79.925781 C 306.039062 81.609375 306.039062 81.609375 307.28125 85.117188 C 307.421875 86.160156 307.558594 87.199219 307.703125 88.273438 C 306.644531 89.074219 305.582031 89.878906 304.488281 90.707031 C 302.425781 92.285156 302.425781 92.285156 300.324219 93.894531 C 298.953125 94.9375 297.582031 95.980469 296.171875 97.054688 C 292.59375 99.660156 292.59375 99.660156 291.070312 103.261719 C 290.601562 108.695312 290.59375 112.25 292.941406 117.210938 C 295.980469 120.277344 295.980469 120.277344 300.636719 120.960938 C 306.335938 119.863281 307.488281 119.019531 311.550781 115.234375 C 322.375 105.242188 334.566406 103.964844 348.933594 104.347656 C 367.082031 106.316406 381.882812 117.375 393.289062 131.152344 C 401.722656 143.488281 405.039062 158.433594 402.511719 173.214844 C 399.304688 177.488281 397.21875 178.332031 392.113281 180.398438 C 383.628906 183.84375 376.605469 189.277344 371.84375 197.15625 C 370.375 204.019531 369.363281 211.753906 372.570312 218.183594 C 378.121094 219.871094 378.121094 219.871094 384.214844 219.851562 C 388.859375 216.527344 391.035156 212.921875 394.089844 208.085938 C 397.785156 202.816406 399.917969 200.625 405.835938 198.199219 C 413.71875 197.320312 417.378906 197.296875 424.445312 200.90625 C 432.824219 207.988281 438.320312 214.09375 439.5 225.28125 C 439.820312 235.792969 438.542969 244.386719 432.449219 253.160156 C 424.269531 261.234375 414.835938 262.679688 403.730469 263.734375 C 397.851562 265.136719 396.136719 266.609375 392.53125 271.480469 C 391.566406 276.355469 391.644531 281.152344 391.691406 286.105469 C 391.675781 287.523438 391.660156 288.941406 391.644531 290.398438 C 391.597656 294.917969 391.59375 299.4375 391.59375 303.960938 C 391.589844 308.480469 391.574219 313 391.527344 317.519531 C 391.5 320.328125 391.496094 323.140625 391.515625 325.949219 C 391.464844 331.472656 391.28125 335.648438 388.683594 340.585938 C 384.15625 344.640625 380.175781 344.660156 374.234375 344.765625 C 369.453125 342.683594 369.453125 342.683594 365.917969 339.769531 C 364.3125 334.945312 364.023438 331.785156 363.964844 326.765625 C 363.945312 325.140625 363.921875 323.519531 363.898438 321.847656 C 363.871094 319.222656 363.871094 319.222656 363.847656 316.546875 C 363.792969 312.859375 363.734375 309.171875 363.679688 305.484375 C 363.601562 299.660156 363.527344 293.832031 363.460938 288.003906 C 363.394531 282.390625 363.308594 276.777344 363.222656 271.164062 C 363.199219 268.535156 363.199219 268.535156 363.179688 265.851562 C 363.152344 264.234375 363.125 262.617188 363.097656 260.949219 C 363.070312 258.808594 363.070312 258.808594 363.042969 256.625 C 362.902344 252.792969 362.902344 252.792969 359.265625 249.828125 C 356.089844 249.300781 356.089844 249.300781 352.613281 249.414062 C 351.445312 249.40625 350.28125 249.394531 349.078125 249.386719 C 345.554688 249.566406 345.554688 249.566406 342.632812 253.160156 C 342.125 256.253906 342.125 256.253906 342.203125 259.828125 C 342.1875 261.917969 342.1875 261.917969 342.167969 264.050781 C 342.171875 265.585938 342.175781 267.117188 342.179688 268.695312 C 342.171875 270.308594 342.164062 271.917969 342.15625 273.578125 C 342.136719 277.085938 342.128906 280.59375 342.125 284.101562 C 342.121094 289.652344 342.089844 295.203125 342.058594 300.753906 C 341.964844 316.539062 341.914062 332.324219 341.875 348.109375 C 341.847656 357.757812 341.796875 367.402344 341.734375 377.050781 C 341.714844 380.730469 341.703125 384.410156 341.703125 388.089844 C 341.703125 393.238281 341.671875 398.382812 341.636719 403.53125 C 341.644531 405.054688 341.652344 406.578125 341.660156 408.144531 C 341.566406 416.109375 341.238281 421.613281 335.980469 428.039062 C 331.589844 430 327.433594 430.214844 322.671875 429.707031 C 317.671875 426.109375 316.304688 423.898438 314.355469 418.046875 C 314.167969 414.304688 314.078125 410.554688 314.042969 406.804688 C 314.019531 405.101562 314.019531 405.101562 314 403.363281 C 313.972656 400.902344 313.945312 398.441406 313.925781 395.980469 C 313.890625 392.089844 313.84375 388.199219 313.796875 384.304688 C 313.679688 374.648438 313.582031 364.988281 313.480469 355.328125 C 313.398438 347.160156 313.304688 338.992188 313.207031 330.824219 C 313.160156 326.984375 313.128906 323.140625 313.09375 319.296875 C 313.066406 316.957031 313.039062 314.613281 313.007812 312.273438 C 312.988281 310.21875 312.96875 308.167969 312.945312 306.054688 C 313.214844 301.609375 313.214844 301.609375 311.03125 299.796875 C 304.316406 299.085938 298.117188 298.480469 292.320312 302.1875 C 291.359375 303.046875 290.398438 303.90625 289.40625 304.792969 C 278.382812 308.363281 266.65625 307.394531 256.144531 303.125 C 250.058594 303.242188 250.058594 303.242188 244.5 304.792969 C 240.449219 310.875 240.847656 313.574219 241.023438 320.796875 C 241.058594 322.980469 241.089844 325.167969 241.125 327.417969 C 241.195312 330.878906 241.277344 334.339844 241.367188 337.800781 C 241.449219 341.15625 241.496094 344.507812 241.542969 347.863281 C 241.613281 350.863281 241.613281 350.863281 241.6875 353.921875 C 241.074219 360.898438 239.347656 365.195312 236.183594 371.414062 C 232.167969 374.628906 230.382812 374.804688 225.269531 374.433594 C 220.742188 372.921875 219.128906 371.824219 216.222656 368.082031 C 215.539062 364.164062 215.539062 364.164062 215.453125 359.492188 C 215.410156 357.738281 215.363281 355.988281 215.320312 354.183594 C 215.300781 352.296875 215.277344 350.40625 215.257812 348.460938 C 215.21875 346.519531 215.179688 344.578125 215.140625 342.578125 C 215.066406 338.476562 215.003906 334.371094 214.953125 330.265625 C 214.875 323.96875 214.746094 317.675781 214.617188 311.382812 C 214.550781 307.398438 214.484375 303.414062 214.425781 299.429688 C 214.386719 297.542969 214.347656 295.652344 214.308594 293.707031 C 214.292969 291.953125 214.273438 290.203125 214.257812 288.398438 C 214.234375 286.859375 214.214844 285.316406 214.191406 283.726562 C 214.5625 279.808594 214.5625 279.808594 217.886719 274.8125 C 221.164062 274.171875 221.164062 274.171875 225.230469 274.144531 C 226.753906 274.121094 228.273438 274.101562 229.84375 274.078125 C 231.492188 274.078125 233.144531 274.078125 234.84375 274.078125 C 237.394531 274.042969 237.394531 274.042969 239.992188 274.011719 C 245.445312 273.941406 250.898438 273.90625 256.351562 273.875 C 261.769531 273.835938 267.183594 273.789062 272.601562 273.722656 C 275.972656 273.683594 279.347656 273.65625 282.71875 273.648438 C 292.132812 273.546875 300.417969 272.859375 309.367188 269.816406 C 312.390625 265.175781 312.390625 265.175781 312.695312 259.824219 C 311.667969 255.957031 311.667969 255.957031 309.367188 253.160156 C 303.984375 250.464844 298.0625 251.089844 292.144531 250.96875 C 290.738281 250.933594 289.328125 250.898438 287.878906 250.859375 C 275.511719 250.5625 263.144531 250.328125 250.777344 250.101562 C 242.230469 249.941406 233.703125 249.683594 225.164062 249.316406 C 221.804688 249.207031 218.441406 249.101562 215.082031 248.996094 C 213.605469 248.90625 212.132812 248.8125 210.613281 248.71875 C 202.988281 248.550781 202.988281 248.550781 196.621094 252.339844 C 193.953125 255.382812 193.953125 255.382812 191.777344 258.570312 C 188.128906 263.484375 183.742188 266.261719 177.96875 268.148438 C 169.558594 269.179688 162.027344 269.464844 154.683594 264.820312 C 146.441406 253.738281 145.308594 245.011719 146.367188 231.507812 C 148.9375 221.324219 154.785156 213.191406 163.726562 207.773438 C 175.257812 202.101562 186.824219 201.519531 199.070312 205.277344 C 206.917969 208.152344 212.246094 212.234375 217.785156 218.496094 C 222.222656 222.402344 225.347656 222.933594 231.195312 223.179688 C 236.511719 220.355469 236.511719 220.355469 237.742188 215.375 C 237.878906 208.257812 235.5625 203.617188 231.195312 198.199219 C 229.390625 196.835938 227.554688 195.515625 225.683594 194.242188 C 221.214844 189.871094 221.214844 189.871094 220.597656 186.433594 C 221.042969 177.894531 223.707031 171.8125 229.6875 165.726562 C 241.4375 156.441406 254.496094 155.792969 268.917969 155.675781 C 274.535156 155.332031 274.535156 155.332031 278.519531 151.835938 C 281.625 148.261719 281.625 148.261719 280.882812 143.027344 C 279.789062 138.078125 279.789062 138.078125 276.101562 134.90625 C 261.644531 129.789062 243.675781 132.449219 230 138.609375 C 213.582031 146.894531 206.613281 155.902344 199.722656 172.785156 C 197.929688 176.546875 197.929688 176.546875 194.601562 178.210938 C 191.625 178.429688 188.644531 178.59375 185.660156 178.730469 C 166.496094 180.25 150.824219 186.179688 137.785156 200.46875 C 128.101562 212.066406 122.867188 221.425781 121.769531 236.640625 C 121.417969 239.835938 121.417969 239.835938 119.753906 243.167969 C 113.378906 243.265625 107.003906 243.324219 100.628906 243.375 C 97.9375 243.417969 97.9375 243.417969 95.195312 243.460938 C 80.785156 243.546875 67.972656 242.945312 56.550781 233.175781 C 46.335938 220.75 40.90625 212.183594 41.121094 196.070312 C 42.417969 183.332031 48.464844 171.511719 58.214844 163.222656 C 69.851562 155.023438 80.773438 153.335938 94.804688 154.894531 C 96.453125 155.71875 96.453125 155.71875 98.132812 156.558594 C 98.777344 162.21875 98.609375 164.28125 95.015625 168.84375 C 93.847656 170.285156 92.679688 171.730469 91.480469 173.214844 C 88.824219 180.53125 87.269531 187.082031 88.152344 194.867188 C 90.765625 198.863281 92.671875 199.707031 97.195312 201.214844 C 102.175781 201.582031 103.988281 200.929688 108.113281 198.199219 C 109.804688 194.871094 109.804688 194.871094 110.710938 191.015625 C 115.046875 176.683594 115.046875 176.683594 120.9375 173.195312 C 121.988281 172.652344 123.039062 172.109375 124.121094 171.550781 C 129.832031 168.820312 129.832031 168.820312 131.710938 164.472656 C 131.121094 155.824219 127.082031 149.042969 121.210938 142.820312 C 109.5625 135.71875 98.378906 132.453125 84.828125 131.578125 C 84.277344 129.929688 83.730469 128.277344 83.164062 126.582031 C 91.117188 114.519531 102.902344 108.085938 116.589844 103.847656 C 130.175781 101.335938 139.683594 104.585938 151.667969 111.175781 C 159.015625 117.058594 162.496094 122.347656 163.597656 131.601562 C 163.816406 135.105469 163.96875 138.609375 164.046875 142.117188 C 164.316406 146.589844 164.316406 146.589844 166.890625 149.6875 C 169.789062 152.078125 169.789062 152.078125 174.644531 151.148438 C 179.667969 149.957031 179.667969 149.957031 184.621094 148.230469 C 187.390625 133.4375 186.355469 118.707031 178.714844 105.449219 C 173.265625 98.09375 167.640625 92.75 159.671875 88.273438 C 160.117188 85.117188 160.117188 85.117188 161.335938 81.609375 C 164.117188 79.925781 164.117188 79.925781 167.574219 78.800781 C 169.382812 78.207031 169.382812 78.207031 171.230469 77.601562 C 185.253906 73.539062 201.808594 72.851562 214.085938 82.09375 Z M 164.664062 83.277344 C 164.664062 84.925781 164.664062 86.574219 164.664062 88.273438 C 167.390625 90.984375 167.390625 90.984375 170.902344 93.582031 C 183.539062 104.316406 187.464844 118.703125 189.613281 134.90625 C 189.011719 141.441406 188.378906 144.304688 184.519531 149.6875 C 177.761719 154.582031 174.53125 154.289062 166.328125 153.230469 C 163.53125 151.445312 163.53125 151.445312 161.335938 148.230469 C 160.296875 142.570312 160.296875 142.570312 159.671875 135.949219 C 158.886719 127.621094 158.15625 121.65625 153.019531 114.921875 C 143.105469 107.085938 131.996094 105.285156 119.753906 106.59375 C 106.894531 109.671875 95.875 115.496094 86.488281 124.914062 C 86.488281 126.015625 86.488281 127.113281 86.488281 128.246094 C 87.757812 128.390625 89.023438 128.535156 90.328125 128.679688 C 100.996094 130.136719 109.210938 132.289062 118.359375 138.039062 C 121.601562 140.171875 121.601562 140.171875 126.40625 141.570312 C 128.070312 144.378906 128.070312 144.378906 129.734375 148.230469 C 131.125 150.601562 131.125 150.601562 132.542969 153.019531 C 135.152344 159.242188 134.941406 161.800781 133.0625 168.21875 C 129.378906 171.464844 129.378906 171.464844 124.847656 174.359375 C 118.269531 179.175781 118.269531 179.175781 114.824219 186.351562 C 114.078125 191.265625 114.078125 191.265625 113.894531 196 C 113.101562 199.863281 113.101562 199.863281 110.125 202.023438 C 104.320312 203.871094 99.160156 204.132812 93.144531 203.195312 C 88.984375 200.90625 88.984375 200.90625 86.488281 196.53125 C 84.277344 184.96875 87.28125 176.6875 93.148438 166.769531 C 95.382812 163.046875 95.382812 163.046875 93.144531 158.226562 C 79.496094 157.484375 69.859375 159.097656 58.734375 167.59375 C 49.136719 176.359375 45.570312 187.984375 44.738281 200.722656 C 45.023438 207.710938 47.027344 213.527344 49.898438 219.851562 C 50.6875 221.601562 51.476562 223.355469 52.289062 225.160156 C 60.65625 234.351562 74.390625 241 86.945312 241.71875 C 88.292969 241.71875 89.640625 241.722656 91.03125 241.722656 C 93.238281 241.726562 93.238281 241.726562 95.492188 241.730469 C 97.015625 241.722656 98.539062 241.714844 100.109375 241.710938 C 101.652344 241.714844 103.191406 241.722656 104.78125 241.730469 C 106.246094 241.726562 107.714844 241.726562 109.222656 241.722656 C 111.238281 241.71875 111.238281 241.71875 113.292969 241.71875 C 116.449219 241.847656 116.449219 241.847656 118.09375 239.835938 C 118.546875 237.101562 118.953125 234.359375 119.339844 231.613281 C 122.21875 215.265625 129.921875 200.296875 143.523438 190.441406 C 157.742188 181.449219 170.367188 177.796875 187.109375 176.898438 C 191.269531 176.804688 191.269531 176.804688 194.601562 174.878906 C 196.089844 171.824219 197.5 168.730469 198.863281 165.617188 C 208.035156 146.894531 222.894531 138.617188 241.589844 131.054688 C 253.6875 128.835938 268.246094 127.265625 279.429688 133.242188 C 282.992188 138.597656 283.253906 141.859375 283.523438 148.171875 C 282.335938 153.414062 280.492188 155.132812 276.101562 158.226562 C 269.949219 159.335938 263.734375 159.070312 257.503906 159.039062 C 246.9375 159.234375 240.09375 161.558594 232.027344 168.785156 C 228.179688 172.90625 226.054688 176.929688 224.019531 182.167969 C 224.730469 190.410156 228.488281 193.097656 234.554688 198.375 C 237.890625 201.570312 239.59375 203.871094 241.171875 208.191406 C 240.878906 213.773438 240.445312 218.140625 237.742188 223.078125 C 232.042969 226.207031 227.324219 226.628906 221.214844 224.847656 C 216.359375 221.34375 211.964844 217.484375 207.464844 213.53125 C 199.5 207.09375 191.441406 204.226562 181.191406 204.964844 C 169.898438 207.058594 160.1875 212.492188 153.019531 221.515625 C 147.121094 231.582031 146.878906 241.964844 149.695312 253.160156 C 152.542969 258.492188 156.296875 261.9375 161.234375 265.445312 C 167.367188 267.304688 172.070312 267.6875 178.007812 264.910156 C 185.003906 260.769531 189.804688 256.484375 194.601562 249.828125 C 199.214844 247.519531 202.964844 247.953125 208.125 247.949219 C 210.269531 247.941406 212.410156 247.9375 214.617188 247.933594 C 216.96875 247.933594 219.320312 247.9375 221.667969 247.941406 C 224.074219 247.941406 226.476562 247.941406 228.878906 247.9375 C 233.921875 247.933594 238.960938 247.9375 244.003906 247.945312 C 250.460938 247.957031 256.921875 247.949219 263.378906 247.941406 C 268.34375 247.933594 273.308594 247.9375 278.273438 247.941406 C 280.65625 247.941406 283.035156 247.941406 285.417969 247.9375 C 288.75 247.933594 292.082031 247.941406 295.414062 247.949219 C 297.308594 247.949219 299.207031 247.949219 301.160156 247.953125 C 305.316406 248.132812 308.738281 248.613281 312.695312 249.828125 C 314.660156 255.984375 314.824219 261.726562 314.355469 268.148438 C 311.3125 272.507812 309.515625 273.097656 304.378906 274.8125 C 301.605469 274.996094 298.828125 275.089844 296.050781 275.128906 C 294.359375 275.15625 292.664062 275.183594 290.921875 275.210938 C 289.097656 275.234375 287.273438 275.257812 285.394531 275.28125 C 283.519531 275.3125 281.648438 275.34375 279.722656 275.375 C 271.695312 275.503906 263.667969 275.617188 255.644531 275.730469 C 249.792969 275.816406 243.945312 275.914062 238.09375 276.007812 C 235.347656 276.042969 235.347656 276.042969 232.542969 276.078125 C 230.863281 276.105469 229.179688 276.132812 227.449219 276.164062 C 225.960938 276.183594 224.472656 276.203125 222.9375 276.226562 C 219.558594 276.105469 219.558594 276.105469 217.886719 278.144531 C 217.714844 280.824219 217.65625 283.515625 217.644531 286.203125 C 217.636719 287.921875 217.625 289.640625 217.613281 291.410156 C 217.613281 293.277344 217.609375 295.148438 217.609375 297.074219 C 217.601562 298.984375 217.597656 300.890625 217.589844 302.859375 C 217.582031 306.90625 217.578125 310.949219 217.578125 314.996094 C 217.574219 321.199219 217.546875 327.402344 217.515625 333.605469 C 217.507812 337.53125 217.507812 341.453125 217.503906 345.375 C 217.488281 348.171875 217.488281 348.171875 217.46875 351.023438 C 217.476562 353.613281 217.476562 353.613281 217.484375 356.257812 C 217.480469 357.78125 217.480469 359.304688 217.476562 360.875 C 217.632812 365.207031 217.632812 365.207031 221.214844 369.746094 C 227.035156 370.441406 227.035156 370.441406 232.855469 369.746094 C 237.03125 365.570312 236.585938 363.023438 236.644531 357.320312 C 236.640625 355.464844 236.640625 355.464844 236.636719 353.574219 C 236.671875 350.957031 236.707031 348.34375 236.742188 345.726562 C 236.78125 341.601562 236.808594 337.476562 236.816406 333.347656 C 236.832031 329.367188 236.890625 325.386719 236.949219 321.40625 C 236.941406 320.179688 236.933594 318.949219 236.925781 317.679688 C 237.035156 311.941406 237.410156 308.703125 240.898438 304.058594 C 246.125 300.289062 249.703125 299.902344 256.144531 299.796875 C 258.59375 300.546875 261.023438 301.382812 263.417969 302.292969 C 271.4375 305.230469 277.855469 305.542969 286.082031 303.125 C 290.027344 301.070312 293.792969 298.804688 297.601562 296.507812 C 301.050781 294.796875 301.050781 294.796875 306.664062 294.695312 C 311.890625 296.8125 313.222656 298.265625 316.019531 303.125 C 316.648438 308.308594 316.648438 308.308594 316.660156 314.480469 C 316.667969 315.605469 316.679688 316.734375 316.6875 317.894531 C 316.703125 320.335938 316.707031 322.777344 316.703125 325.21875 C 316.695312 329.082031 316.71875 332.945312 316.75 336.8125 C 316.820312 346.40625 316.839844 356.003906 316.859375 365.597656 C 316.878906 373.710938 316.917969 381.824219 316.984375 389.941406 C 317.007812 393.746094 317 397.546875 316.992188 401.355469 C 317.007812 403.6875 317.023438 406.023438 317.042969 408.359375 C 317.046875 410.398438 317.050781 412.433594 317.054688 414.53125 C 317.734375 420.132812 318.652344 422.480469 322.671875 426.375 C 327.664062 427.625 327.664062 427.625 332.652344 426.375 C 338.851562 419.082031 338.292969 411.835938 338.128906 402.761719 C 338.121094 400.472656 338.121094 400.472656 338.109375 398.140625 C 338.089844 394.832031 338.058594 391.527344 338.019531 388.222656 C 337.953125 382.984375 337.921875 377.746094 337.898438 372.511719 C 337.832031 359.5 337.710938 346.492188 337.589844 333.484375 C 337.492188 322.492188 337.414062 311.5 337.363281 300.507812 C 337.332031 295.355469 337.269531 290.203125 337.207031 285.054688 C 337.1875 281.882812 337.171875 278.710938 337.15625 275.539062 C 337.128906 274.113281 337.105469 272.691406 337.078125 271.222656 C 337.074219 262.292969 338.371094 256.0625 342.632812 248.164062 C 347.839844 245.558594 353.59375 245.597656 359.265625 246.5 C 362.753906 248.542969 362.753906 248.542969 365.917969 251.496094 C 366.757812 255.074219 366.757812 255.074219 366.773438 259.269531 C 366.796875 260.84375 366.816406 262.414062 366.839844 264.035156 C 366.828125 266.582031 366.828125 266.582031 366.816406 269.179688 C 366.835938 270.925781 366.855469 272.671875 366.875 274.472656 C 366.933594 280.070312 366.949219 285.664062 366.957031 291.257812 C 366.984375 296.84375 367.023438 302.425781 367.078125 308.007812 C 367.109375 311.484375 367.125 314.960938 367.121094 318.4375 C 367.132812 320.019531 367.144531 321.605469 367.15625 323.234375 C 367.160156 324.621094 367.160156 326.007812 367.164062 327.4375 C 367.691406 332.507812 368.871094 337.726562 372.570312 341.433594 C 377.421875 342.128906 377.421875 342.128906 382.550781 341.433594 C 387.300781 337.246094 387.5625 334.53125 388.179688 328.15625 C 388.214844 325.488281 388.226562 322.816406 388.214844 320.144531 C 388.242188 318.019531 388.242188 318.019531 388.269531 315.851562 C 388.328125 311.332031 388.355469 306.8125 388.371094 302.292969 C 388.398438 296.34375 388.453125 290.390625 388.527344 284.441406 C 388.519531 282.394531 388.519531 282.394531 388.511719 280.304688 C 388.585938 274.742188 388.792969 270.582031 391.449219 265.636719 C 395.496094 261.976562 399.011719 262.117188 404.382812 261.695312 C 417.304688 260.050781 426.007812 255.773438 434.214844 245.5625 C 437.027344 235.238281 438.460938 223.863281 433.769531 213.9375 C 429.597656 208.152344 425.851562 204.183594 419.144531 201.527344 C 415.824219 201.007812 415.824219 201.007812 412.488281 201.113281 C 411.390625 201.105469 410.292969 201.09375 409.164062 201.085938 C 405.089844 201.628906 402.621094 202.582031 399.183594 204.859375 C 396.671875 208.394531 396.671875 208.394531 394.714844 212.460938 C 390.933594 219.785156 390.933594 219.785156 389.203125 221.515625 C 385.578125 221.855469 385.578125 221.855469 381.09375 221.933594 C 379.625 221.976562 378.152344 222.019531 376.636719 222.0625 C 372.570312 221.515625 372.570312 221.515625 369.640625 219.324219 C 366.140625 214.554688 366.015625 210.71875 365.917969 204.859375 C 369.285156 192.1875 379.757812 182.898438 390.671875 176.324219 C 392.917969 175.207031 395.214844 174.195312 397.519531 173.214844 C 400.15625 170.574219 399.59375 167.921875 399.703125 164.261719 C 399.503906 148.800781 393.441406 134.25 382.550781 123.25 C 377.800781 119.429688 372.871094 116.273438 367.582031 113.257812 C 365.867188 112.226562 364.152344 111.195312 362.382812 110.132812 C 351.328125 105.851562 336.992188 106.253906 325.910156 109.957031 C 320.476562 112.628906 315.675781 115.566406 310.886719 119.273438 C 306.46875 122.476562 303.148438 123.027344 297.722656 123.25 C 290.132812 119.699219 290.132812 119.699219 287.746094 114.921875 C 286.789062 103.253906 286.789062 103.253906 290.449219 96.914062 C 294.792969 92.90625 298.972656 90.609375 304.378906 88.273438 C 303.308594 83.199219 303.308594 83.199219 299.921875 81.695312 C 284.464844 76.492188 271.359375 76.605469 256.296875 82.996094 C 252.679688 85.019531 250.363281 86.660156 247.828125 89.9375 C 246.792969 93.785156 246.265625 97.558594 245.703125 101.5 C 244.5 104.929688 244.5 104.929688 241.484375 107.023438 C 235.484375 109.0625 230.886719 108.761719 224.539062 108.257812 C 220.992188 105.648438 219.746094 104.011719 218.628906 99.730469 C 218.453125 98.457031 218.277344 97.183594 218.09375 95.871094 C 216.988281 90.277344 216.476562 88.546875 212.480469 84.214844 C 197.132812 75.480469 180.484375 75.964844 164.664062 83.277344 Z M 164.664062 83.277344 "/>
<path style=" stroke:none;fill-rule:nonzero;fill:rgb(97.254902%,92.941177%,93.725491%);fill-opacity:1;" d="M 225.644531 55.976562 C 229.417969 58.691406 229.417969 58.691406 234 58.1875 C 240.199219 56.433594 245.980469 54.101562 251.878906 51.527344 C 271.660156 44.28125 296 46.804688 315.007812 55.015625 C 322.152344 58.617188 326.730469 62.335938 331.820312 68.496094 C 338.027344 75.140625 344.105469 76.386719 352.820312 77.550781 C 378.546875 80.992188 397.636719 94.132812 413.945312 114.191406 C 425.222656 129.59375 430.730469 146.28125 430.992188 165.511719 C 431.390625 170.664062 431.851562 172.589844 435.464844 176.363281 C 438.0625 178.316406 440.710938 180.207031 443.398438 182.039062 C 453.957031 189.488281 462.859375 200.441406 465.714844 213.1875 C 467.742188 232.261719 467.429688 249.894531 455.929688 265.828125 C 446.335938 277.480469 435.113281 285.027344 420.804688 289.800781 C 420.800781 291.226562 420.792969 292.65625 420.785156 294.125 C 420.738281 299.496094 420.65625 304.863281 420.550781 310.234375 C 420.515625 312.542969 420.488281 314.855469 420.480469 317.164062 C 420.40625 333.203125 419.214844 347.265625 407.933594 359.582031 C 399.191406 367.828125 389.90625 371.40625 378.003906 372.371094 C 375.539062 372.574219 375.539062 372.574219 373.027344 372.785156 C 371.15625 372.929688 371.15625 372.929688 369.246094 373.078125 C 369.222656 375.472656 369.222656 375.472656 369.199219 377.914062 C 369.132812 383.886719 369.023438 389.855469 368.898438 395.828125 C 368.851562 398.402344 368.816406 400.976562 368.792969 403.554688 C 368.507812 433.3125 368.507812 433.3125 357.414062 445.101562 C 345.96875 453.609375 335.59375 458.085938 321.011719 456.355469 C 309.636719 453.875 300.429688 449.574219 293.835938 439.695312 C 287.265625 427.753906 286.523438 417.449219 286.570312 403.980469 C 286.542969 401.898438 286.519531 399.816406 286.492188 397.667969 C 286.433594 392.1875 286.410156 386.707031 286.402344 381.222656 C 286.386719 375.605469 286.324219 369.988281 286.265625 364.375 C 286.164062 353.394531 286.105469 342.417969 286.082031 331.441406 C 283.621094 331.628906 281.160156 331.84375 278.699219 332.066406 C 277.332031 332.179688 275.960938 332.296875 274.550781 332.417969 C 273.414062 332.644531 272.28125 332.871094 271.113281 333.105469 C 269.09375 337.148438 269.265625 339.738281 269.273438 344.25 C 269.25 345.824219 269.222656 347.398438 269.199219 349.023438 C 269.160156 352.3125 269.148438 355.605469 269.171875 358.898438 C 268.898438 371.152344 265.730469 378.730469 257.804688 388.066406 C 248.847656 396.589844 238.695312 401.414062 226.203125 401.390625 C 212.324219 399.484375 202.925781 393.792969 193.796875 383.292969 C 189.277344 376.925781 187.542969 371.042969 187.417969 363.28125 C 187.386719 361.714844 187.351562 360.148438 187.320312 358.535156 C 187.300781 356.863281 187.28125 355.195312 187.261719 353.476562 C 187.226562 351.75 187.195312 350.023438 187.164062 348.246094 C 187.0625 342.75 186.984375 337.25 186.910156 331.753906 C 186.847656 328.019531 186.78125 324.285156 186.714844 320.550781 C 186.554688 311.414062 186.414062 302.273438 186.285156 293.132812 C 178.550781 292.683594 178.550781 292.683594 171.316406 294.796875 C 168.898438 304.632812 169.199219 315.007812 169.085938 325.089844 C 168.734375 335.40625 168.734375 335.40625 164.949219 340.644531 C 159.804688 344.140625 155.875 344.65625 149.695312 344.765625 C 143.75 342.117188 141.691406 340.242188 138.050781 334.769531 C 137.601562 330.261719 137.601562 330.261719 137.539062 324.855469 C 137.496094 322.894531 137.453125 320.9375 137.410156 318.917969 C 137.351562 314.800781 137.300781 310.683594 137.253906 306.566406 C 136.980469 294.234375 136.242188 285.421875 129.320312 275.019531 C 121.035156 269.6875 108.90625 271.398438 99.378906 271.585938 C 74.695312 271.742188 53.136719 267.433594 34.5 249.777344 C 20.152344 233.542969 13.679688 214.195312 14.332031 192.734375 C 15.945312 177.03125 21.421875 165.09375 31.601562 153.230469 C 32.835938 151.578125 34.070312 149.929688 35.34375 148.230469 C 36.304688 147.132812 37.265625 146.035156 38.253906 144.902344 C 39.351562 144.902344 40.449219 144.902344 41.582031 144.902344 C 41.582031 143.800781 41.582031 142.703125 41.582031 141.570312 C 43.226562 140.472656 44.875 139.371094 46.570312 138.238281 C 48.582031 133.964844 48.582031 133.964844 50.3125 128.972656 C 58.441406 108.699219 73.820312 92.542969 93.675781 83.316406 C 103.570312 79.53125 113.933594 77.378906 124.328125 75.46875 C 129.960938 73.191406 131.761719 71.417969 135.765625 67.039062 C 156.207031 45.085938 199.878906 40.390625 225.644531 55.976562 Z M 132.523438 74.382812 C 127.035156 79.1875 122.269531 79.9375 115.285156 80.777344 C 103.886719 82.546875 94.683594 85.367188 84.828125 91.605469 C 83.671875 92.320312 82.519531 93.039062 81.332031 93.777344 C 66.25 104.097656 57.496094 118.21875 50.761719 134.941406 C 47.886719 140.589844 44.527344 143.914062 39.917969 148.230469 C 24.171875 165.753906 17.554688 180.242188 17.847656 203.957031 C 19.394531 224.339844 28.191406 239.207031 43.035156 252.847656 C 56.746094 262.457031 71.015625 268.445312 87.90625 268.722656 C 90.007812 268.773438 92.109375 268.820312 94.273438 268.871094 C 98.660156 268.945312 103.046875 269.019531 107.4375 269.09375 C 109.535156 269.144531 111.628906 269.191406 113.789062 269.242188 C 115.695312 269.273438 117.597656 269.304688 119.558594 269.335938 C 124.746094 269.816406 128.429688 270.796875 133.0625 273.148438 C 135.035156 276.269531 135.035156 276.269531 136.386719 279.808594 C 136.957031 280.761719 137.523438 281.71875 138.109375 282.703125 C 140.210938 287.644531 140.113281 291.664062 140.109375 297.03125 C 140.136719 299.074219 140.164062 301.121094 140.191406 303.226562 C 140.21875 307.523438 140.230469 311.824219 140.21875 316.121094 C 139.871094 328.339844 139.871094 328.339844 145.222656 338.734375 C 149.699219 341.960938 149.699219 341.960938 155.828125 341.433594 C 161.761719 340.277344 161.761719 340.277344 164.664062 334.769531 C 165.21875 330.851562 165.21875 330.851562 165.234375 326.503906 C 165.285156 324.894531 165.332031 323.289062 165.382812 321.632812 C 165.4375 319.117188 165.4375 319.117188 165.496094 316.554688 C 165.566406 313.242188 165.652344 309.929688 165.753906 306.621094 C 165.785156 305.152344 165.816406 303.683594 165.847656 302.171875 C 166.363281 297.804688 167.183594 295.097656 169.652344 291.46875 C 175.761719 289.734375 179.71875 289.285156 185.78125 291.273438 C 190.21875 295.359375 190.226562 296.207031 190.578125 301.980469 C 190.589844 305.019531 190.558594 308.058594 190.496094 311.097656 C 190.503906 313.523438 190.503906 313.523438 190.511719 315.996094 C 190.535156 322.914062 190.460938 329.828125 190.394531 336.742188 C 190.359375 341.796875 190.375 346.847656 190.390625 351.902344 C 190.359375 353.4375 190.328125 354.976562 190.292969 356.5625 C 190.339844 368.941406 193.714844 379.804688 202.082031 389.199219 C 209.777344 395.976562 217.839844 397.273438 227.761719 397.125 C 228.945312 397.109375 230.128906 397.09375 231.347656 397.074219 C 240.746094 396.753906 245.804688 395.992188 252.816406 389.734375 C 259.53125 381.054688 264.585938 373.902344 264.867188 362.824219 C 264.949219 360.269531 264.949219 360.269531 265.035156 357.664062 C 265.136719 354.0625 265.230469 350.457031 265.320312 346.851562 C 265.375 345.148438 265.433594 343.449219 265.492188 341.695312 C 265.554688 339.34375 265.554688 339.34375 265.617188 336.949219 C 266.121094 333.105469 266.121094 333.105469 269.449219 329.773438 C 274.140625 329.449219 274.140625 329.449219 279.636719 329.566406 C 281.457031 329.597656 283.28125 329.625 285.160156 329.65625 C 286.5625 329.695312 287.964844 329.734375 289.40625 329.773438 C 289.417969 331.507812 289.417969 331.507812 289.425781 333.277344 C 289.488281 344.230469 289.585938 355.179688 289.714844 366.132812 C 289.78125 371.761719 289.832031 377.390625 289.859375 383.019531 C 289.894531 389.507812 289.972656 395.992188 290.058594 402.480469 C 290.0625 405.476562 290.0625 405.476562 290.0625 408.539062 C 290.285156 421.429688 291.523438 433.042969 300.632812 442.824219 C 310.421875 451.894531 319.5 453.8125 332.648438 453.539062 C 344.394531 452.328125 351.507812 446.730469 358.886719 437.832031 C 363.976562 430.03125 364.679688 423.253906 364.769531 414.019531 C 364.808594 411.632812 364.851562 409.246094 364.894531 406.859375 C 364.941406 403.121094 364.984375 399.382812 365.015625 395.644531 C 365.050781 392.019531 365.117188 388.394531 365.183594 384.769531 C 365.207031 382.605469 365.230469 380.445312 365.253906 378.21875 C 365.472656 376.519531 365.691406 374.824219 365.917969 373.078125 C 371.527344 369.332031 374.480469 369.15625 381.09375 368.5 C 392.984375 366.785156 402.308594 363.128906 409.832031 353.410156 C 415.171875 344.566406 416.007812 337.214844 416.050781 327.0625 C 416.082031 324.925781 416.113281 322.792969 416.148438 320.589844 C 416.195312 317.210938 416.230469 313.832031 416.234375 310.449219 C 416.238281 307.171875 416.300781 303.898438 416.363281 300.621094 C 416.386719 297.6875 416.386719 297.6875 416.410156 294.699219 C 417.480469 289.800781 417.480469 289.800781 421.496094 286.730469 C 422.914062 286.09375 424.335938 285.460938 425.796875 284.804688 C 426.910156 284.261719 428.019531 283.714844 429.167969 283.152344 C 430.742188 282.425781 430.742188 282.425781 432.34375 281.683594 C 445.867188 274.9375 455.316406 264.980469 460.414062 250.765625 C 464.453125 235.558594 465.273438 217.042969 457.644531 202.929688 C 457.015625 201.917969 456.382812 200.90625 455.734375 199.863281 C 455.136719 198.835938 454.542969 197.808594 453.929688 196.746094 C 452.089844 193.640625 452.089844 193.640625 449.082031 189.871094 C 447.984375 189.871094 446.886719 189.871094 445.753906 189.871094 C 445.207031 188.222656 444.65625 186.574219 444.09375 184.875 C 441.351562 183.292969 438.574219 181.773438 435.777344 180.292969 C 429.890625 176.34375 427.769531 174.621094 426.226562 167.601562 C 426.074219 163.28125 425.996094 158.960938 425.976562 154.640625 C 425.449219 135.996094 416.007812 118.441406 403.011719 105.429688 C 386.722656 91.167969 370.65625 82.628906 349.078125 80.277344 C 340.304688 79.160156 336.707031 76.550781 330.988281 69.953125 C 313.800781 55.824219 293.496094 47.824219 271.113281 49.964844 C 260.691406 52.148438 250.328125 54.492188 240.808594 59.375 C 234.707031 62.34375 231.023438 61.582031 224.539062 59.960938 C 222.894531 58.308594 222.894531 58.308594 221.214844 56.628906 C 189.355469 45.699219 156.113281 47.34375 132.523438 74.382812 Z M 132.523438 74.382812 "/>
<path style=" stroke:none;fill-rule:nonzero;fill:rgb(94.901961%,27.058825%,37.254903%);fill-opacity:1;" d="M 354.277344 129.910156 C 358.695312 132.402344 358.695312 132.402344 362.59375 136.574219 C 363.808594 141.554688 363.695312 146.355469 363.527344 151.460938 C 363.5 152.871094 363.472656 154.28125 363.445312 155.730469 C 362.582031 179.347656 354.753906 194.964844 338.058594 211.105469 C 326.679688 221.027344 314.503906 225.886719 299.386719 226.511719 C 297.644531 226.597656 295.902344 226.683594 294.105469 226.773438 C 275.667969 227.273438 275.667969 227.273438 267.785156 221.515625 C 263.628906 215.269531 263.566406 212.257812 264.460938 204.859375 C 267.773438 200.351562 270.378906 197.058594 276.023438 195.820312 C 279.808594 195.578125 283.539062 195.550781 287.328125 195.59375 C 300.914062 195.296875 311.289062 194.101562 321.632812 184.5625 C 328.605469 172.476562 331.382812 159.324219 330.679688 145.421875 C 331.0625 138.59375 332.804688 136.289062 337.644531 131.578125 C 343.371094 127.371094 347.582031 127.996094 354.277344 129.910156 Z M 354.277344 129.910156 "/>
<path style=" stroke:none;fill-rule:nonzero;fill:rgb(98.431373%,90.588236%,91.764706%);fill-opacity:1;" d="M 186.285156 294.796875 C 187.933594 294.796875 189.578125 294.796875 191.277344 294.796875 C 191.28125 296.980469 191.289062 299.164062 191.296875 301.414062 C 191.332031 309.578125 191.421875 317.742188 191.53125 325.90625 C 191.566406 329.425781 191.589844 332.949219 191.601562 336.46875 C 191.617188 341.554688 191.683594 346.640625 191.761719 351.726562 C 191.753906 354.054688 191.753906 354.054688 191.742188 356.433594 C 192.015625 368.855469 195.316406 380.175781 204.074219 389.359375 C 212.761719 396.617188 224.269531 395.785156 235.007812 395.511719 C 241.269531 394.71875 244.371094 393.257812 249.488281 389.734375 C 250.585938 389.734375 251.683594 389.734375 252.816406 389.734375 C 253.226562 388.875 253.640625 388.015625 254.0625 387.132812 C 256.144531 383.070312 256.144531 383.070312 259.539062 378.210938 C 264.308594 369.894531 263.726562 361.199219 263.730469 351.84375 C 263.746094 348.417969 263.78125 344.988281 263.84375 341.5625 C 263.84375 340.058594 263.84375 338.554688 263.84375 337.003906 C 264.578125 332.351562 265.714844 330.886719 269.449219 328.109375 C 273.398438 327.445312 273.398438 327.445312 277.765625 327.484375 C 279.207031 327.472656 280.648438 327.457031 282.132812 327.445312 C 286.972656 328.257812 288.152344 329.199219 291.070312 333.105469 C 291.671875 337.4375 291.671875 337.4375 291.636719 342.695312 C 291.636719 345.644531 291.636719 345.644531 291.636719 348.652344 C 291.609375 350.777344 291.585938 352.902344 291.558594 355.089844 C 291.550781 357.261719 291.542969 359.4375 291.539062 361.675781 C 291.519531 367.453125 291.46875 373.226562 291.414062 379 C 291.363281 384.894531 291.339844 390.789062 291.316406 396.683594 C 291.261719 408.246094 291.175781 419.808594 291.070312 431.371094 C 287.320312 425.738281 287.300781 423.703125 287.214844 417.09375 C 287.179688 415.191406 287.148438 413.292969 287.113281 411.335938 C 287.09375 409.285156 287.074219 407.234375 287.054688 405.121094 C 287.023438 403.019531 286.992188 400.921875 286.957031 398.757812 C 286.875 393.179688 286.808594 387.601562 286.746094 382.023438 C 286.679688 376.332031 286.59375 370.636719 286.511719 364.941406 C 286.351562 353.777344 286.210938 342.609375 286.082031 331.441406 C 283.621094 331.628906 281.160156 331.84375 278.699219 332.066406 C 277.332031 332.179688 275.960938 332.296875 274.550781 332.417969 C 273.414062 332.644531 272.28125 332.871094 271.113281 333.105469 C 269.09375 337.148438 269.265625 339.738281 269.273438 344.25 C 269.238281 346.613281 269.238281 346.613281 269.199219 349.023438 C 269.160156 352.3125 269.148438 355.605469 269.171875 358.898438 C 268.898438 371.152344 265.730469 378.730469 257.804688 388.066406 C 248.847656 396.589844 238.695312 401.414062 226.203125 401.390625 C 212.324219 399.484375 202.925781 393.792969 193.796875 383.292969 C 187.160156 373.941406 187.390625 364.933594 187.261719 353.839844 C 187.226562 352.152344 187.195312 350.460938 187.164062 348.722656 C 187.0625 343.34375 186.984375 337.964844 186.910156 332.585938 C 186.847656 328.933594 186.78125 325.277344 186.714844 321.625 C 186.554688 312.683594 186.414062 303.742188 186.285156 294.796875 Z M 186.285156 294.796875 "/>
<path style=" stroke:none;fill-rule:nonzero;fill:rgb(98.431373%,93.725491%,94.509804%);fill-opacity:1;" d="M 281.09375 133.242188 C 284.605469 138.519531 284.96875 141.789062 285.347656 148.011719 C 283.800781 153.925781 280.929688 156.253906 276.101562 159.890625 C 271.171875 160.949219 266.367188 160.90625 261.339844 160.828125 C 250.28125 160.707031 243.75 161.855469 234.519531 168.21875 C 228.355469 174.390625 226.488281 179.921875 224.539062 188.203125 C 223.992188 188.203125 223.441406 188.203125 222.878906 188.203125 C 222.039062 180.226562 221.820312 175.128906 226.828125 168.636719 C 238.546875 156.707031 253.042969 155.804688 268.917969 155.675781 C 274.535156 155.332031 274.535156 155.332031 278.519531 151.835938 C 281.625 148.261719 281.625 148.261719 280.882812 143.027344 C 279.789062 138.078125 279.789062 138.078125 276.101562 134.90625 C 261.644531 129.789062 243.675781 132.449219 230 138.609375 C 213.582031 146.894531 206.613281 155.902344 199.722656 172.785156 C 197.929688 176.546875 197.929688 176.546875 194.601562 178.210938 C 191.625 178.429688 188.644531 178.59375 185.660156 178.730469 C 166.496094 180.25 150.824219 186.179688 137.785156 200.46875 C 128.101562 212.066406 122.867188 221.425781 121.769531 236.640625 C 121.417969 239.835938 121.417969 239.835938 119.753906 243.167969 C 113.378906 243.265625 107.003906 243.324219 100.628906 243.375 C 98.835938 243.402344 97.042969 243.429688 95.195312 243.460938 C 80.527344 243.550781 68.332031 242.613281 56.550781 233.175781 C 56.550781 232.074219 56.550781 230.976562 56.550781 229.84375 C 60.609375 231.433594 64.597656 233.042969 68.511719 234.957031 C 83.9375 241.828125 99.914062 240.417969 116.429688 239.835938 C 116.570312 238.707031 116.714844 237.578125 116.863281 236.414062 C 119.542969 218.644531 126.234375 203.726562 139.714844 191.535156 C 156.640625 179.140625 173.785156 174.878906 194.601562 174.878906 C 194.757812 173.230469 194.757812 173.230469 194.914062 171.550781 C 199.011719 156.398438 210.675781 145.265625 223.804688 137.335938 C 241.238281 128.277344 263.21875 122.152344 281.09375 133.242188 Z M 281.09375 133.242188 "/>
<path style=" stroke:none;fill-rule:nonzero;fill:rgb(98.823529%,93.333334%,94.117647%);fill-opacity:1;" d="M 354.277344 129.910156 C 358.695312 132.402344 358.695312 132.402344 362.59375 136.574219 C 363.808594 141.554688 363.695312 146.355469 363.527344 151.460938 C 363.5 152.871094 363.472656 154.28125 363.445312 155.730469 C 362.582031 179.347656 354.753906 194.964844 338.058594 211.105469 C 326.679688 221.027344 314.503906 225.886719 299.386719 226.511719 C 297.644531 226.597656 295.902344 226.683594 294.105469 226.773438 C 275.667969 227.273438 275.667969 227.273438 267.785156 221.515625 C 263.628906 215.269531 263.566406 212.257812 264.460938 204.859375 C 267.773438 200.351562 270.378906 197.058594 276.023438 195.820312 C 279.808594 195.578125 283.539062 195.550781 287.328125 195.59375 C 300.914062 195.296875 311.289062 194.101562 321.632812 184.5625 C 328.605469 172.476562 331.382812 159.324219 330.679688 145.421875 C 331.0625 138.59375 332.804688 136.289062 337.644531 131.578125 C 343.371094 127.371094 347.582031 127.996094 354.277344 129.910156 Z M 339.304688 133.242188 C 335.09375 139.566406 335.109375 145.246094 334.523438 152.605469 C 333.109375 167.042969 331.40625 178.738281 320.28125 188.933594 C 310.003906 197.3125 299.730469 197.089844 287.070312 197.035156 C 279.910156 197.222656 276.902344 197.589844 271.007812 202.054688 C 267.199219 206.421875 267.199219 206.421875 267.785156 212.5625 C 269.425781 218.105469 270.042969 219.785156 274.4375 223.179688 C 277.820312 223.972656 277.820312 223.972656 281.558594 223.902344 C 282.953125 223.921875 284.34375 223.941406 285.777344 223.960938 C 287.25 223.945312 288.722656 223.925781 290.238281 223.910156 C 292.496094 223.886719 292.496094 223.886719 294.800781 223.863281 C 314.722656 223.347656 328.191406 217.035156 342.632812 203.195312 C 355.777344 187.976562 359.480469 170.558594 359.785156 150.9375 C 359.828125 149.183594 359.828125 149.183594 359.875 147.390625 C 359.867188 142.609375 359.800781 139.089844 357.210938 134.984375 C 353.488281 132.777344 351 132.574219 346.6875 132.617188 C 344.726562 132.597656 344.726562 132.597656 342.730469 132.578125 C 341.601562 132.796875 340.46875 133.015625 339.304688 133.242188 Z M 339.304688 133.242188 "/>
<path style=" stroke:none;fill-rule:nonzero;fill:rgb(99.607843%,98.823529%,98.823529%);fill-opacity:1;" d="M 306.5625 292.925781 C 312.328125 295.34375 314.277344 297.894531 317.683594 303.125 C 318.484375 308.425781 318.484375 308.425781 318.4375 314.46875 C 318.441406 315.574219 318.441406 316.679688 318.441406 317.820312 C 318.4375 321.453125 318.386719 325.082031 318.332031 328.714844 C 318.320312 331.242188 318.3125 333.769531 318.304688 336.296875 C 318.28125 342.929688 318.214844 349.566406 318.140625 356.199219 C 318.074219 362.976562 318.042969 369.753906 318.007812 376.53125 C 317.9375 389.816406 317.824219 403.097656 317.683594 416.382812 C 317.136719 416.382812 316.585938 416.382812 316.019531 416.382812 C 316.007812 415.019531 315.992188 413.65625 315.980469 412.253906 C 315.851562 399.414062 315.703125 386.570312 315.542969 373.730469 C 315.460938 367.128906 315.382812 360.527344 315.320312 353.925781 C 315.257812 347.554688 315.179688 341.183594 315.09375 334.808594 C 315.0625 332.378906 315.035156 329.949219 315.015625 327.519531 C 314.988281 324.113281 314.941406 320.710938 314.886719 317.304688 C 314.867188 315.367188 314.84375 313.429688 314.820312 311.433594 C 314.375 306.648438 313.519531 303.84375 311.03125 299.796875 C 301.21875 298.921875 301.21875 298.921875 292.320312 302.1875 C 290.878906 303.476562 290.878906 303.476562 289.40625 304.792969 C 278.382812 308.363281 266.65625 307.394531 256.144531 303.125 C 250.058594 303.242188 250.058594 303.242188 244.5 304.792969 C 240.527344 310.761719 240.671875 313.738281 240.484375 320.84375 C 240.421875 323.003906 240.355469 325.167969 240.289062 327.398438 C 240.238281 329.679688 240.1875 331.964844 240.132812 334.25 C 240.070312 336.554688 240.003906 338.859375 239.9375 341.164062 C 239.78125 346.804688 239.640625 352.445312 239.511719 358.089844 C 238.414062 358.089844 237.316406 358.089844 236.183594 358.089844 C 235.976562 351.125 235.828125 344.164062 235.726562 337.199219 C 235.683594 334.832031 235.628906 332.464844 235.554688 330.097656 C 235.453125 326.6875 235.40625 323.277344 235.371094 319.867188 C 235.328125 317.816406 235.285156 315.765625 235.238281 313.65625 C 236.449219 306.574219 238.957031 304.203125 244.5 299.796875 C 251.796875 297.546875 256.460938 298.007812 263.417969 300.628906 C 271.4375 303.566406 277.855469 303.878906 286.082031 301.460938 C 288.722656 300.082031 291.324219 298.621094 293.878906 297.089844 C 298.796875 294.136719 300.679688 293.148438 306.5625 292.925781 Z M 306.5625 292.925781 "/>
<path style=" stroke:none;fill-rule:nonzero;fill:rgb(93.333334%,87.058824%,88.235295%);fill-opacity:1;" d="M 364.253906 253.160156 C 364.804688 253.160156 365.351562 253.160156 365.917969 253.160156 C 365.917969 278.992188 365.917969 304.824219 365.917969 331.441406 C 367.015625 331.441406 368.113281 331.441406 369.246094 331.441406 C 370.34375 334.1875 371.441406 336.9375 372.570312 339.769531 C 377.351562 340.324219 377.351562 340.324219 382.550781 339.769531 C 387.1875 335.632812 387.5625 332.929688 388.261719 326.691406 C 388.328125 324.121094 388.371094 321.546875 388.390625 318.976562 C 388.421875 317.617188 388.453125 316.257812 388.480469 314.859375 C 388.574219 310.53125 388.628906 306.203125 388.683594 301.878906 C 388.738281 298.9375 388.796875 296 388.855469 293.0625 C 388.996094 285.867188 389.109375 278.675781 389.203125 271.480469 C 389.753906 271.480469 390.300781 271.480469 390.867188 271.480469 C 390.992188 280.609375 391.082031 289.738281 391.140625 298.867188 C 391.167969 301.972656 391.199219 305.078125 391.242188 308.183594 C 391.304688 312.648438 391.332031 317.113281 391.355469 321.578125 C 391.378906 322.964844 391.40625 324.351562 391.433594 325.777344 C 391.433594 331.566406 391.40625 335.410156 388.691406 340.597656 C 384.152344 344.632812 380.171875 344.660156 374.234375 344.765625 C 369.453125 342.683594 369.453125 342.683594 365.917969 339.769531 C 364.292969 334.890625 364.054688 331.789062 364.066406 326.710938 C 364.066406 325.078125 364.066406 323.445312 364.066406 321.761719 C 364.074219 320.003906 364.082031 318.242188 364.09375 316.429688 C 364.09375 314.625 364.097656 312.820312 364.101562 310.964844 C 364.109375 305.191406 364.128906 299.421875 364.152344 293.652344 C 364.160156 289.746094 364.167969 285.835938 364.175781 281.925781 C 364.191406 272.335938 364.21875 262.75 364.253906 253.160156 Z M 364.253906 253.160156 "/>
<path style=" stroke:none;fill-rule:nonzero;fill:rgb(99.215686%,83.92157%,86.274511%);fill-opacity:1;" d="M 186.285156 294.796875 C 187.933594 294.796875 189.578125 294.796875 191.277344 294.796875 C 191.28125 296.980469 191.289062 299.164062 191.296875 301.414062 C 191.332031 309.578125 191.421875 317.742188 191.53125 325.90625 C 191.566406 329.425781 191.589844 332.949219 191.601562 336.46875 C 191.617188 341.554688 191.683594 346.640625 191.761719 351.726562 C 191.753906 354.054688 191.753906 354.054688 191.742188 356.433594 C 191.992188 367.808594 194.71875 376.984375 201.253906 386.402344 C 203.457031 388.085938 205.671875 389.757812 207.90625 391.398438 C 207.90625 392.5 207.90625 393.597656 207.90625 394.730469 C 202.820312 392.492188 199.644531 390.121094 196.058594 385.882812 C 194.816406 384.449219 194.816406 384.449219 193.550781 382.988281 C 187.097656 373.777344 187.386719 364.710938 187.261719 353.839844 C 187.226562 352.152344 187.195312 350.460938 187.164062 348.722656 C 187.0625 343.34375 186.984375 337.964844 186.910156 332.585938 C 186.847656 328.933594 186.78125 325.277344 186.714844 321.625 C 186.554688 312.683594 186.414062 303.742188 186.285156 294.796875 Z M 186.285156 294.796875 "/>
<path style=" stroke:none;fill-rule:nonzero;fill:rgb(98.823529%,93.333334%,94.117647%);fill-opacity:1;" d="M 146.367188 231.507812 C 147.464844 231.507812 148.5625 231.507812 149.695312 231.507812 C 149.625 233.464844 149.558594 235.425781 149.484375 237.441406 C 149.523438 244.324219 150.421875 250.042969 153.019531 256.492188 C 158.042969 261.269531 162.128906 264.457031 169.03125 265.445312 C 178.734375 264.363281 185.605469 259.207031 191.898438 251.910156 C 192.792969 250.675781 193.683594 249.4375 194.601562 248.164062 C 200.144531 245.390625 206.355469 246.296875 212.441406 246.335938 C 214.597656 246.339844 214.597656 246.339844 216.792969 246.34375 C 221.382812 246.351562 225.976562 246.371094 230.570312 246.394531 C 233.679688 246.402344 236.789062 246.410156 239.898438 246.417969 C 247.53125 246.433594 255.164062 246.464844 262.796875 246.5 C 262.796875 247.046875 262.796875 247.597656 262.796875 248.164062 C 260.933594 248.152344 259.070312 248.144531 257.152344 248.132812 C 250.214844 248.109375 243.277344 248.160156 236.339844 248.234375 C 233.34375 248.257812 230.34375 248.257812 227.347656 248.238281 C 223.027344 248.214844 218.710938 248.261719 214.390625 248.328125 C 213.0625 248.300781 211.730469 248.277344 210.359375 248.253906 C 204.691406 248.398438 201.035156 248.582031 196.644531 252.382812 C 194 255.429688 194 255.429688 191.804688 258.59375 C 188.113281 263.46875 183.742188 266.261719 177.96875 268.148438 C 169.558594 269.179688 162.027344 269.464844 154.683594 264.820312 C 148.453125 256.441406 146.140625 250.71875 146.261719 240.355469 C 146.277344 238.703125 146.292969 237.046875 146.308594 235.339844 C 146.328125 234.074219 146.347656 232.8125 146.367188 231.507812 Z M 146.367188 231.507812 "/>
<path style=" stroke:none;fill-rule:nonzero;fill:rgb(91.764706%,90.196079%,90.980393%);fill-opacity:1;" d="M 94.804688 154.894531 C 94.804688 155.445312 94.804688 155.992188 94.804688 156.558594 C 88.769531 156.558594 82.730469 156.558594 76.511719 156.558594 C 76.511719 157.660156 76.511719 158.757812 76.511719 159.890625 C 73.9375 160.871094 73.9375 160.871094 71.3125 161.867188 C 60.09375 166.792969 53.964844 172.773438 49.496094 184.113281 C 45.542969 196.949219 45.824219 207.636719 51.5625 219.851562 C 54.089844 223.941406 54.089844 223.941406 56.550781 226.511719 C 56.003906 227.609375 55.453125 228.710938 54.886719 229.84375 C 52.96875 227.496094 51.066406 225.132812 49.171875 222.765625 C 48.109375 221.449219 47.046875 220.136719 45.953125 218.78125 C 40.3125 210.601562 40.601562 201.171875 41.582031 191.535156 C 44.921875 178.679688 50.953125 168.339844 61.851562 160.660156 C 72.769531 154.386719 82.425781 153.9375 94.804688 154.894531 Z M 94.804688 154.894531 "/>
<path style=" stroke:none;fill-rule:nonzero;fill:rgb(91.37255%,89.803922%,90.588236%);fill-opacity:1;" d="M 264.460938 333.105469 C 265.007812 333.105469 265.558594 333.105469 266.121094 333.105469 C 266.699219 339.449219 267.148438 345.800781 267.578125 352.15625 C 267.742188 353.9375 267.902344 355.71875 268.070312 357.550781 C 268.777344 369.117188 267.464844 375.855469 260.402344 385.136719 C 252.082031 394.527344 242.277344 400.175781 229.679688 401.410156 C 222.054688 401.371094 215.089844 398.792969 207.90625 396.394531 C 208.457031 394.746094 209.007812 393.097656 209.570312 391.398438 C 211.21875 392.5 212.863281 393.597656 214.5625 394.730469 C 219.003906 395.101562 223.21875 395.269531 227.660156 395.25 C 228.835938 395.277344 230.011719 395.304688 231.226562 395.332031 C 238.832031 395.339844 243.292969 394.074219 249.488281 389.734375 C 250.585938 389.734375 251.683594 389.734375 252.816406 389.734375 C 253.226562 388.875 253.640625 388.015625 254.0625 387.132812 C 256.144531 383.070312 256.144531 383.070312 259.519531 378.230469 C 264.328125 369.839844 263.914062 360.980469 264.042969 351.53125 C 264.117188 348.867188 264.117188 348.867188 264.191406 346.152344 C 264.308594 341.804688 264.398438 337.457031 264.460938 333.105469 Z M 264.460938 333.105469 "/>
<path style=" stroke:none;fill-rule:nonzero;fill:rgb(92.941177%,92.156863%,92.941177%);fill-opacity:1;" d="M 357.601562 164.886719 C 360.589844 169.933594 361.351562 172.785156 360.097656 178.523438 C 355.285156 196.84375 340.875 210.425781 325.558594 220.714844 C 312.019531 227.421875 295.78125 225.390625 281.09375 224.847656 C 281.09375 224.296875 281.09375 223.746094 281.09375 223.179688 C 282.800781 223.136719 284.507812 223.09375 286.269531 223.050781 C 308.882812 222.238281 325.988281 218.015625 342.632812 201.527344 C 351.203125 191.09375 355.472656 178.109375 357.601562 164.886719 Z M 357.601562 164.886719 "/>
<path style=" stroke:none;fill-rule:nonzero;fill:rgb(94.509804%,89.411765%,90.588236%);fill-opacity:1;" d="M 314.355469 306.457031 C 314.90625 306.457031 315.453125 306.457031 316.019531 306.457031 C 316.027344 307.8125 316.03125 309.167969 316.039062 310.5625 C 316.101562 323.355469 316.195312 336.144531 316.328125 348.9375 C 316.390625 355.511719 316.445312 362.085938 316.472656 368.664062 C 316.496094 375.015625 316.554688 381.363281 316.632812 387.714844 C 316.65625 390.132812 316.671875 392.550781 316.671875 394.96875 C 316.675781 398.367188 316.722656 401.761719 316.777344 405.15625 C 316.789062 407.085938 316.804688 409.019531 316.820312 411.007812 C 317.871094 417.554688 320.257812 421.207031 324.335938 426.375 C 327.832031 428.6875 327.832031 428.6875 330.988281 429.707031 C 325.480469 429.5 325.480469 429.5 319.347656 428.039062 C 314.671875 420.839844 313.742188 415.15625 313.789062 406.667969 C 313.789062 405.578125 313.789062 404.488281 313.789062 403.367188 C 313.792969 399.796875 313.832031 396.230469 313.871094 392.660156 C 313.878906 390.175781 313.886719 387.6875 313.890625 385.199219 C 313.910156 378.675781 313.960938 372.15625 314.015625 365.632812 C 314.066406 358.96875 314.089844 352.300781 314.113281 345.636719 C 314.167969 332.578125 314.253906 319.515625 314.355469 306.457031 Z M 314.355469 306.457031 "/>
<path style=" stroke:none;fill-rule:nonzero;fill:rgb(92.156863%,90.980393%,91.764706%);fill-opacity:1;" d="M 291.070312 76.613281 C 292.785156 76.921875 294.5 77.234375 296.269531 77.550781 C 297.296875 77.792969 298.328125 78.03125 299.386719 78.28125 C 299.386719 78.828125 299.386719 79.378906 299.386719 79.945312 C 297.417969 79.867188 295.453125 79.789062 293.421875 79.710938 C 272.179688 78.808594 272.179688 78.808594 252.816406 86.609375 C 249.035156 91.105469 247.949219 94.527344 246.265625 100.140625 C 244.300781 105.46875 242.859375 107.339844 237.847656 109.925781 C 236.199219 109.375 234.554688 108.824219 232.855469 108.257812 C 234.09375 107.160156 235.328125 106.0625 236.597656 104.929688 C 240.269531 101.304688 242.363281 97.855469 244.5 93.164062 C 248.210938 85.414062 251.980469 81.5625 260.15625 78.382812 C 270.988281 74.960938 279.953125 74.589844 291.070312 76.613281 Z M 291.070312 76.613281 "/>
<path style=" stroke:none;fill-rule:nonzero;fill:rgb(92.941177%,90.980393%,91.764706%);fill-opacity:1;" d="M 419.144531 198.199219 C 428.289062 203.195312 428.289062 203.195312 430.785156 208.191406 C 422.886719 205.066406 422.886719 205.066406 419.144531 203.195312 C 408.867188 202.414062 408.867188 202.414062 399.183594 204.859375 C 397.984375 208.160156 396.886719 211.496094 395.855469 214.851562 C 393.15625 219.640625 393.15625 219.640625 389.203125 223.179688 C 384.546875 223.886719 380.648438 223.578125 375.898438 223.179688 C 376.445312 222.082031 376.996094 220.980469 377.5625 219.851562 C 379.035156 219.816406 380.511719 219.78125 382.03125 219.746094 C 389.667969 217.582031 391.128906 213.351562 395.148438 206.804688 C 400.921875 198.015625 409.117188 196.375 419.144531 198.199219 Z M 419.144531 198.199219 "/>
<path style=" stroke:none;fill-rule:nonzero;fill:rgb(99.215686%,95.294118%,96.078432%);fill-opacity:1;" d="M 136.386719 284.804688 C 138.035156 285.355469 139.679688 285.90625 141.378906 286.472656 C 141.394531 287.839844 141.410156 289.210938 141.425781 290.621094 C 141.515625 296.835938 141.652344 303.050781 141.792969 309.269531 C 141.816406 311.421875 141.839844 313.578125 141.863281 315.796875 C 141.917969 317.875 141.972656 319.949219 142.027344 322.089844 C 142.078125 324.957031 142.078125 324.957031 142.132812 327.878906 C 143.207031 334.066406 145.449219 336.914062 149.695312 341.433594 C 145.742188 340.914062 145.742188 340.914062 141.378906 339.769531 C 137.351562 333.71875 137.542969 330.566406 137.363281 323.351562 C 137.332031 322.25 137.296875 321.148438 137.265625 320.015625 C 137.164062 316.5 137.089844 312.988281 137.011719 309.476562 C 136.949219 307.089844 136.882812 304.707031 136.816406 302.324219 C 136.65625 296.484375 136.515625 290.644531 136.386719 284.804688 Z M 136.386719 284.804688 "/>
<path style=" stroke:none;fill-rule:nonzero;fill:rgb(99.215686%,89.803922%,90.980393%);fill-opacity:1;" d="M 56.550781 229.84375 C 60.609375 231.433594 64.597656 233.042969 68.511719 234.957031 C 79.171875 239.703125 89.117188 240.550781 100.628906 240.667969 C 102.097656 240.699219 103.570312 240.730469 105.089844 240.761719 C 113.351562 240.90625 113.351562 240.90625 119.910156 236.453125 C 120.410156 235.371094 120.90625 234.289062 121.417969 233.175781 C 120.871094 236.472656 120.320312 239.769531 119.753906 243.167969 C 113.378906 243.265625 107.003906 243.324219 100.628906 243.375 C 98.835938 243.402344 97.042969 243.429688 95.195312 243.460938 C 80.527344 243.550781 68.332031 242.613281 56.550781 233.175781 C 56.550781 232.074219 56.550781 230.976562 56.550781 229.84375 Z M 56.550781 229.84375 "/>
<path style=" stroke:none;fill-rule:nonzero;fill:rgb(98.823529%,94.901961%,95.294118%);fill-opacity:1;" d="M 86.488281 128.246094 C 101.121094 126.78125 112.734375 131.5 124.363281 140.523438 C 126.511719 142.609375 126.511719 142.609375 129.734375 146.566406 C 130.765625 147.734375 131.792969 148.902344 132.851562 150.105469 C 133.78125 151.652344 133.78125 151.652344 134.722656 153.230469 C 134.175781 154.878906 133.625 156.527344 133.0625 158.226562 C 133.0625 157.125 133.0625 156.027344 133.0625 154.894531 C 131.964844 154.894531 130.867188 154.894531 129.734375 154.894531 C 128.195312 152.871094 126.757812 150.777344 125.367188 148.648438 C 117.640625 138.09375 109.199219 135.195312 96.574219 133.035156 C 95.015625 132.824219 93.457031 132.613281 91.851562 132.398438 C 90.628906 132.125 89.410156 131.855469 88.152344 131.578125 C 87.605469 130.476562 87.054688 129.378906 86.488281 128.246094 Z M 86.488281 128.246094 "/>
<path style=" stroke:none;fill-rule:nonzero;fill:rgb(99.215686%,93.725491%,94.509804%);fill-opacity:1;" d="M 76.511719 156.558594 C 83.644531 156.558594 90.78125 156.558594 98.132812 156.558594 C 98.132812 166.082031 97.054688 166.320312 91.480469 173.214844 C 88.824219 180.53125 87.269531 187.082031 88.152344 194.867188 C 90.507812 197.785156 90.507812 197.785156 93.144531 199.863281 C 93.144531 200.960938 93.144531 202.0625 93.144531 203.195312 C 86.699219 200.28125 86.699219 200.28125 84.828125 196.53125 C 83.253906 184.835938 85.542969 176.769531 91.324219 166.605469 C 93.40625 163.375 93.40625 163.375 93.144531 159.890625 C 87.652344 159.339844 82.164062 158.792969 76.511719 158.226562 C 76.511719 157.675781 76.511719 157.125 76.511719 156.558594 Z M 76.511719 156.558594 "/>
<path style=" stroke:none;fill-rule:nonzero;fill:rgb(98.823529%,98.039216%,98.039216%);fill-opacity:1;" d="M 427.460938 146.566406 C 428.007812 146.566406 428.558594 146.566406 429.121094 146.566406 C 429.1875 148.355469 429.253906 150.144531 429.324219 151.984375 C 429.886719 165.609375 429.886719 165.609375 435.828125 177.40625 C 439.574219 180.207031 443.371094 182.539062 447.417969 184.875 C 450.386719 187.652344 450.386719 187.652344 452.40625 189.871094 C 451.859375 191.519531 451.308594 193.167969 450.746094 194.867188 C 449.613281 193.167969 449.613281 193.167969 448.457031 191.433594 C 444.542969 186.460938 444.542969 186.460938 439.945312 184.386719 C 434.699219 181.609375 431.273438 179.476562 427.460938 174.878906 C 425.328125 165.632812 426.515625 155.910156 427.460938 146.566406 Z M 427.460938 146.566406 "/>
<path style=" stroke:none;fill-rule:nonzero;fill:rgb(95.686275%,95.294118%,95.686275%);fill-opacity:1;" d="M 261.027344 157.914062 C 263.210938 157.945312 263.210938 157.945312 265.4375 157.980469 C 268.992188 158.039062 272.546875 158.128906 276.101562 158.226562 C 276.101562 158.773438 276.101562 159.324219 276.101562 159.890625 C 274.074219 159.933594 272.050781 159.976562 269.960938 160.019531 C 267.261719 160.113281 264.5625 160.210938 261.859375 160.308594 C 259.863281 160.34375 259.863281 160.34375 257.828125 160.378906 C 246.378906 160.847656 238.953125 163.78125 230.675781 172.070312 C 227.300781 177.449219 225.988281 182.042969 224.539062 188.203125 C 223.992188 188.203125 223.441406 188.203125 222.878906 188.203125 C 222.015625 179.988281 221.847656 175.109375 227.140625 168.53125 C 236.398438 157.953125 247.96875 157.523438 261.027344 157.914062 Z M 261.027344 157.914062 "/>
<path style=" stroke:none;fill-rule:nonzero;fill:rgb(91.37255%,90.588236%,90.980393%);fill-opacity:1;" d="M 186.285156 203.195312 C 181.539062 206.363281 177.601562 207.996094 172.25 209.855469 C 164.058594 212.652344 164.058594 212.652344 156.347656 216.519531 C 154.507812 220.5 154.507812 220.5 153.019531 224.847656 C 151.425781 227.117188 149.78125 229.355469 148.03125 231.507812 C 148.652344 222.769531 151.621094 217.34375 158.011719 211.523438 C 167.058594 205.007812 175.28125 202.878906 186.285156 203.195312 Z M 186.285156 203.195312 "/>
<path style=" stroke:none;fill-rule:nonzero;fill:rgb(90.980393%,87.843138%,89.019608%);fill-opacity:1;" d="M 452.40625 191.535156 C 459.566406 197.421875 463.667969 204.210938 465.714844 213.1875 C 466.050781 222.65625 465.042969 232.097656 464.050781 241.5 C 463.503906 241.5 462.953125 241.5 462.386719 241.5 C 462.324219 238.878906 462.324219 238.878906 462.257812 236.199219 C 461.820312 224.082031 461.375 213.742188 455.605469 202.816406 C 453.707031 199.160156 452.933594 195.605469 452.40625 191.535156 Z M 452.40625 191.535156 "/>
<path style=" stroke:none;fill-rule:nonzero;fill:rgb(98.823529%,96.078432%,96.862745%);fill-opacity:1;" d="M 266.121094 203.195312 C 266.671875 203.195312 267.21875 203.195312 267.785156 203.195312 C 267.988281 204.238281 268.1875 205.28125 268.394531 206.355469 C 268.675781 207.71875 268.953125 209.078125 269.242188 210.480469 C 269.511719 211.832031 269.78125 213.1875 270.058594 214.578125 C 270.890625 218.496094 270.890625 218.496094 274.4375 221.515625 C 278.695312 222.292969 282.832031 222.90625 287.121094 223.390625 C 288.296875 223.53125 289.472656 223.675781 290.679688 223.824219 C 293.582031 224.179688 296.484375 224.515625 299.386719 224.847656 C 299.386719 225.394531 299.386719 225.945312 299.386719 226.511719 C 275.914062 227.453125 275.914062 227.453125 267.785156 221.515625 C 263.730469 215.425781 264.0625 212.039062 264.460938 204.859375 C 265.007812 204.308594 265.558594 203.761719 266.121094 203.195312 Z M 266.121094 203.195312 "/>
<path style=" stroke:none;fill-rule:nonzero;fill:rgb(99.215686%,90.588236%,91.764706%);fill-opacity:1;" d="M 306.039062 296.464844 C 306.039062 297.015625 306.039062 297.5625 306.039062 298.128906 C 303.3125 298.851562 303.3125 298.851562 300.53125 299.585938 C 294.332031 301.160156 294.332031 301.160156 289.40625 304.792969 C 281.515625 307.1875 272.628906 307.277344 264.460938 306.457031 C 262.8125 305.359375 261.164062 304.257812 259.46875 303.125 C 261.628906 303.195312 263.792969 303.265625 266.019531 303.335938 C 280.558594 303.335938 292.199219 295.941406 306.039062 296.464844 Z M 306.039062 296.464844 "/>
<path style=" stroke:none;fill-rule:nonzero;fill:rgb(94.117647%,90.196079%,91.37255%);fill-opacity:1;" d="M 91.480469 268.148438 C 96.851562 268.003906 102.21875 267.917969 107.59375 267.835938 C 109.867188 267.773438 109.867188 267.773438 112.1875 267.710938 C 120.523438 267.621094 126.347656 267.605469 133.0625 273.148438 C 139.714844 280.527344 139.714844 280.527344 139.714844 284.804688 C 133.058594 282.585938 130.839844 278.46875 126.40625 273.148438 C 121.984375 271.671875 118.957031 271.179688 114.382812 270.953125 C 112.378906 270.847656 112.378906 270.847656 110.335938 270.742188 C 108.953125 270.675781 107.566406 270.613281 106.136719 270.542969 C 104.730469 270.472656 103.328125 270.402344 101.878906 270.328125 C 98.414062 270.148438 94.945312 269.980469 91.480469 269.816406 C 91.480469 269.265625 91.480469 268.714844 91.480469 268.148438 Z M 91.480469 268.148438 "/>
<path style=" stroke:none;fill-rule:nonzero;fill:rgb(99.607843%,93.725491%,94.509804%);fill-opacity:1;" d="M 294.398438 79.945312 C 298.238281 80.496094 302.082031 81.042969 306.039062 81.609375 C 306.589844 83.808594 307.136719 86.007812 307.703125 88.273438 C 306.660156 89.074219 305.621094 89.878906 304.546875 90.707031 C 303.1875 91.757812 301.828125 92.808594 300.425781 93.894531 C 299.078125 94.9375 297.726562 95.980469 296.335938 97.054688 C 292.664062 99.878906 292.664062 99.878906 289.40625 103.261719 C 288.859375 101.613281 288.308594 99.964844 287.746094 98.265625 C 298.199219 88.988281 298.199219 88.988281 304.378906 88.273438 C 301.164062 84.902344 298.335938 82.574219 294.398438 79.945312 Z M 294.398438 79.945312 "/>
<path style=" stroke:none;fill-rule:nonzero;fill:rgb(99.607843%,88.627452%,90.196079%);fill-opacity:1;" d="M 239.511719 331.441406 C 240.058594 331.441406 240.609375 331.441406 241.171875 331.441406 C 241.308594 335.917969 241.40625 340.390625 241.484375 344.867188 C 241.546875 346.746094 241.546875 346.746094 241.613281 348.664062 C 241.726562 357.53125 240.1875 363.492188 236.183594 371.414062 C 233.4375 371.414062 230.695312 371.414062 227.867188 371.414062 C 228.929688 370.761719 229.996094 370.109375 231.089844 369.433594 C 235.25 365.777344 235.601562 363.488281 236.183594 358.089844 C 237.28125 358.089844 238.378906 358.089844 239.511719 358.089844 C 239.511719 349.292969 239.511719 340.5 239.511719 331.441406 Z M 239.511719 331.441406 "/>
<path style=" stroke:none;fill-rule:nonzero;fill:rgb(98.823529%,90.980393%,92.54902%);fill-opacity:1;" d="M 352.613281 244.417969 C 353.746094 244.40625 354.875 244.398438 356.042969 244.390625 C 359.265625 244.832031 359.265625 244.832031 364.253906 248.164062 C 363.707031 249.8125 363.15625 251.460938 362.59375 253.160156 C 361.492188 252.0625 360.394531 250.960938 359.265625 249.828125 C 356.089844 249.300781 356.089844 249.300781 352.613281 249.414062 C 351.445312 249.40625 350.28125 249.394531 349.078125 249.386719 C 345.554688 249.566406 345.554688 249.566406 342.632812 253.160156 C 341.472656 255.355469 340.355469 257.574219 339.304688 259.824219 C 339.824219 254.203125 339.824219 254.203125 340.96875 248.164062 C 345.953125 244.835938 347.011719 244.375 352.613281 244.417969 Z M 352.613281 244.417969 "/>
<path style=" stroke:none;fill-rule:nonzero;fill:rgb(91.37255%,86.666667%,87.843138%);fill-opacity:1;" d="M 422.46875 134.90625 C 423.566406 134.90625 424.664062 134.90625 425.796875 134.90625 C 427.394531 139.710938 427.652344 142.695312 427.621094 147.679688 C 427.613281 149.910156 427.613281 149.910156 427.605469 152.183594 C 427.589844 153.730469 427.578125 155.277344 427.5625 156.871094 C 427.554688 158.4375 427.546875 160.003906 427.539062 161.617188 C 427.519531 165.484375 427.492188 169.347656 427.460938 173.214844 C 426.910156 173.214844 426.363281 173.214844 425.796875 173.214844 C 425.695312 171.566406 425.59375 169.917969 425.492188 168.21875 C 424.789062 157.066406 424.046875 145.976562 422.46875 134.90625 Z M 422.46875 134.90625 "/>
<path style=" stroke:none;fill-rule:nonzero;fill:rgb(99.607843%,96.470588%,96.862745%);fill-opacity:1;" d="M 397.519531 149.898438 C 398.070312 150.996094 398.617188 152.097656 399.183594 153.230469 C 400.28125 153.230469 401.378906 153.230469 402.511719 153.230469 C 402.511719 159.824219 402.511719 166.417969 402.511719 173.214844 C 400.316406 173.765625 398.121094 174.3125 395.855469 174.878906 C 396.40625 173.78125 396.953125 172.683594 397.519531 171.550781 C 397.636719 167.875 397.660156 164.195312 397.625 160.515625 C 397.609375 158.535156 397.59375 156.554688 397.578125 154.515625 C 397.558594 152.992188 397.539062 151.46875 397.519531 149.898438 Z M 397.519531 149.898438 "/>
<path style=" stroke:none;fill-rule:nonzero;fill:rgb(97.647059%,95.686275%,96.078432%);fill-opacity:1;" d="M 409.164062 109.925781 C 415.816406 116.03125 420.253906 121.695312 424.132812 129.910156 C 423.71875 133.972656 423.71875 133.972656 422.46875 136.574219 C 419.542969 132.175781 416.714844 127.75 413.945312 123.25 C 413.050781 121.804688 412.152344 120.363281 411.230469 118.878906 C 409.164062 114.921875 409.164062 114.921875 409.164062 109.925781 Z M 409.164062 109.925781 "/>
<path style=" stroke:none;fill-rule:nonzero;fill:rgb(99.607843%,94.509804%,95.294118%);fill-opacity:1;" d="M 261.132812 299.796875 C 261.679688 300.894531 262.230469 301.992188 262.796875 303.125 C 261.8125 303.050781 260.828125 302.972656 259.8125 302.890625 C 252.609375 302.5625 248.9375 302.398438 242.734375 306.457031 C 241.136719 308.105469 241.136719 308.105469 239.511719 309.789062 C 238.960938 308.140625 238.414062 306.492188 237.847656 304.792969 C 245.976562 298.335938 250.898438 297.707031 261.132812 299.796875 Z M 261.132812 299.796875 "/>
<path style=" stroke:none;fill-rule:nonzero;fill:rgb(98.039216%,89.411765%,90.588236%);fill-opacity:1;" d="M 21.621094 223.179688 C 29.9375 235.671875 29.9375 235.671875 38.253906 248.164062 C 36.609375 248.164062 34.960938 248.164062 33.265625 248.164062 C 26.804688 240.921875 22.125 233.019531 21.621094 223.179688 Z M 21.621094 223.179688 "/>
<path style=" stroke:none;fill-rule:nonzero;fill:rgb(97.647059%,91.37255%,92.54902%);fill-opacity:1;" d="M 430.785156 176.546875 C 437.726562 177.410156 441.1875 179.398438 446.273438 184.144531 C 447.433594 185.210938 448.59375 186.277344 449.789062 187.378906 C 450.652344 188.199219 451.519531 189.023438 452.40625 189.871094 C 451.859375 191.519531 451.308594 193.167969 450.746094 194.867188 C 449.921875 193.664062 449.097656 192.460938 448.25 191.222656 C 443.734375 186.132812 439.296875 183.273438 433.460938 179.902344 C 432.578125 179.34375 431.695312 178.785156 430.785156 178.210938 C 430.785156 177.660156 430.785156 177.113281 430.785156 176.546875 Z M 430.785156 176.546875 "/>
<path style=" stroke:none;fill-rule:nonzero;fill:rgb(55.29412%,26.666668%,33.725491%);fill-opacity:1;" d="M 184.621094 121.582031 C 185.171875 121.582031 185.71875 121.582031 186.285156 121.582031 C 186.65625 124.773438 186.996094 127.964844 187.324219 131.160156 C 187.519531 132.9375 187.710938 134.714844 187.910156 136.546875 C 187.949219 141.632812 187.308594 144.003906 184.621094 148.230469 C 183.523438 147.683594 182.425781 147.132812 181.296875 146.566406 C 182.394531 138.320312 183.492188 130.078125 184.621094 121.582031 Z M 184.621094 121.582031 "/>
<path style=" stroke:none;fill-rule:nonzero;fill:rgb(94.901961%,89.803922%,90.980393%);fill-opacity:1;" d="M 347.621094 104.929688 C 357.542969 105.773438 365.316406 108.902344 374.234375 113.257812 C 369.46875 115.191406 367.554688 114.914062 362.566406 113.261719 C 360.789062 112.46875 359.015625 111.679688 357.1875 110.863281 C 355.394531 110.074219 353.601562 109.285156 351.753906 108.472656 C 350.390625 107.855469 349.027344 107.234375 347.621094 106.59375 C 347.621094 106.042969 347.621094 105.496094 347.621094 104.929688 Z M 347.621094 104.929688 "/>
<path style=" stroke:none;fill-rule:nonzero;fill:rgb(91.37255%,90.588236%,91.37255%);fill-opacity:1;" d="M 440.765625 274.8125 C 441.863281 274.8125 442.960938 274.8125 444.09375 274.8125 C 444.09375 275.910156 444.09375 277.011719 444.09375 278.144531 C 438.179688 283.101562 432.671875 286.300781 424.964844 286.992188 C 423.59375 286.820312 422.21875 286.648438 420.804688 286.472656 C 424.75 283.839844 428.421875 281.761719 432.65625 279.703125 C 437.03125 277.710938 437.03125 277.710938 440.765625 274.8125 Z M 440.765625 274.8125 "/>
<path style=" stroke:none;fill-rule:nonzero;fill:rgb(91.37255%,86.666667%,88.235295%);fill-opacity:1;" d="M 96.46875 114.921875 C 94.191406 120.1875 93.160156 121.570312 88.152344 124.914062 C 88.152344 127.113281 88.152344 129.3125 88.152344 131.578125 C 86.507812 131.027344 84.859375 130.476562 83.164062 129.910156 C 85.34375 123.367188 88.566406 114.921875 96.46875 114.921875 Z M 96.46875 114.921875 "/>
<path style=" stroke:none;fill-rule:nonzero;fill:rgb(90.196079%,89.411765%,90.196079%);fill-opacity:1;" d="M 326 108.257812 C 326 109.359375 326 110.457031 326 111.589844 C 317.230469 116.957031 317.230469 116.957031 314.355469 118.253906 C 313.257812 117.703125 312.160156 117.152344 311.03125 116.585938 C 318.808594 108.257812 318.808594 108.257812 326 108.257812 Z M 326 108.257812 "/>
<path style=" stroke:none;fill-rule:nonzero;fill:rgb(95.294118%,94.901961%,95.294118%);fill-opacity:1;" d="M 452.40625 263.152344 C 453.507812 263.152344 454.605469 263.152344 455.734375 263.152344 C 453.253906 269.476562 449.484375 272.496094 444.09375 276.476562 C 446.371094 271.566406 448.878906 267.277344 452.40625 263.152344 Z M 452.40625 263.152344 "/>
</g>
</svg>
