<?xml version="1.0" encoding="UTF-8"?>
<svg version="1.1" xmlns="http://www.w3.org/2000/svg" width="104" height="108">
<path d="M0 0 C1 3 1 3 0.0625 5.5 C-1.39372385 10.29697268 -1.5319077 15.01727638 -1 20 C-0.34 20.99 0.32 21.98 1 23 C1.99 23 2.98 23 4 23 C4.020625 24.27875 4.04125 25.5575 4.0625 26.875 C4.69363524 33.07787606 8.20470928 37.25340926 12 42 C13.98 41.505 13.98 41.505 16 41 C16.04125 41.969375 16.0825 42.93875 16.125 43.9375 C17.00293591 50.27671372 21.4580247 55.70280181 26 60 C26.268125 59.071875 26.53625 58.14375 26.8125 57.1875 C27.94480421 54.14815711 28.69900511 53.09926383 31 51 C31.17390259 52.07483643 31.17390259 52.07483643 31.35131836 53.17138672 C31.87667357 56.40648264 32.40702266 59.64074021 32.9375 62.875 C33.21110352 64.56689453 33.21110352 64.56689453 33.49023438 66.29296875 C33.66748047 67.36933594 33.84472656 68.44570312 34.02734375 69.5546875 C34.18968506 70.54968262 34.35202637 71.54467773 34.51928711 72.56982422 C34.88767373 74.99630522 34.88767373 74.99630522 36 77 C36.09555417 78.45579587 36.12984691 79.9160796 36.125 81.375 C36.12886719 82.53128906 36.12886719 82.53128906 36.1328125 83.7109375 C36 86 36 86 35.46484375 87.8671875 C34.80295681 90.90408051 35.15973584 93.66373153 35.4375 96.75 C35.59025391 98.50570312 35.59025391 98.50570312 35.74609375 100.296875 C35.82988281 101.18890625 35.91367187 102.0809375 36 103 C33.14278946 101.97262004 32.14642095 101.26364235 30.6484375 98.56640625 C30.01808594 97.07947266 30.01808594 97.07947266 29.375 95.5625 C23.81546503 84.02853939 16.55394437 77.77265074 5.20703125 72.609375 C0.85117711 70.42348961 -1.92775044 67.71127747 -5 64 C-5.57621094 63.36449219 -6.15242187 62.72898438 -6.74609375 62.07421875 C-11 57.32909931 -11 57.32909931 -11 55 C-10.01 55 -9.02 55 -8 55 C-8.42152344 54.03578125 -8.84304687 53.0715625 -9.27734375 52.078125 C-9.83089032 50.80215324 -10.38426681 49.52610767 -10.9375 48.25 C-11.21529297 47.61578125 -11.49308594 46.9815625 -11.77929688 46.328125 C-13.10720894 43.25632842 -14.34366167 40.28999974 -15 37 C-14.34 37 -13.68 37 -13 37 C-13.06960938 36.07960937 -13.13921875 35.15921875 -13.2109375 34.2109375 C-13.72201922 22.26136015 -11.15692675 12.43287438 -3.125 3.125 C-2.10121213 2.06575627 -1.06660582 1.0161156 0 0 Z " fill="#370507" transform="translate(15,2)"/>
<path d="M0 0 C5.61713514 1.87237838 7.64254492 8.41792948 10.27734375 13.4296875 C13.05946413 19.4691659 13.33133813 24.70338546 13.04296875 31.3125 C12.79370222 33.97195032 12.79370222 33.97195032 14 36 C14.45686663 40.98270168 13.33378516 43.99915283 11 48.375 C10.443125 49.43460938 9.88625 50.49421875 9.3125 51.5859375 C8.879375 52.38257813 8.44625 53.17921875 8 54 C9.32 54 10.64 54 12 54 C10.56246045 57.31002696 8.77516456 59.43889464 6.1875 61.9375 C5.52105469 62.58589844 4.85460937 63.23429687 4.16796875 63.90234375 C3.09482422 64.94068359 3.09482422 64.94068359 2 66 C1.22527344 66.84691406 0.45054688 67.69382812 -0.34765625 68.56640625 C-3.30452886 71.27941308 -5.93194076 72.46608826 -9.625 74 C-20.83046297 79.15377333 -27.74544579 88.78642225 -32.29296875 100.05078125 C-32.52628906 100.69402344 -32.75960937 101.33726563 -33 102 C-33.66 102 -34.32 102 -35 102 C-35.50333318 84.51304363 -34.76908758 68.11125666 -31 51 C-28 52 -28 52 -26.3125 55.0625 C-25.879375 56.031875 -25.44625 57.00125 -25 58 C-23.64843325 56.34808509 -22.320238 54.67705908 -21 53 C-20.31744141 52.16855469 -20.31744141 52.16855469 -19.62109375 51.3203125 C-16.60707374 47.45618429 -15.37919074 45.09063594 -16 40 C-14.68 40.66 -13.36 41.32 -12 42 C-6.68330063 35.47559085 -3.8730145 30.52616948 -4 22 C-2.68 22 -1.36 22 0 22 C1.5846214 15.25926433 2.40201391 10.53881564 0 4 C0 2.68 0 1.36 0 0 Z " fill="#280507" transform="translate(90,3)"/>
<path d="M0 0 C2.76223278 2.76223278 2.57856291 5.20706617 3 9 C3.66 9 4.32 9 5 9 C5.82315537 19.95253944 1.93687151 27.0703613 -4 36 C-3.236875 35.236875 -2.47375 34.47375 -1.6875 33.6875 C0.20833333 31.79166667 2.10416667 29.89583333 4 28 C2.84303201 37.4871375 -1.09126681 43.56045072 -8 50 C-13.51174914 54.14505115 -19.08190979 56.65967547 -25.7734375 58.26171875 C-28.46714415 59.15489517 -29.9912589 59.97401649 -32 62 C-33.13080853 65.1683405 -33.13080853 65.1683405 -33.75 68.6875 C-33.99234375 69.86699219 -34.2346875 71.04648438 -34.484375 72.26171875 C-34.65453125 73.16535156 -34.8246875 74.06898437 -35 75 C-35.33 75 -35.66 75 -36 75 C-36.33786247 65.72755227 -36.09424624 57.85912168 -33 49 C-32.01 49.66 -31.02 50.32 -30 51 C-29.59910156 50.46632812 -29.19820313 49.93265625 -28.78515625 49.3828125 C-25.51950268 45.10265884 -22.15439814 41.01777483 -18.5 37.0625 C-8.42338657 25.9747978 -1.72933373 15.0219736 0 0 Z " fill="#E12928" transform="translate(95,14)"/>
<path d="M0 0 C0.33 0 0.66 0 1 0 C0.979375 0.85980469 0.95875 1.71960938 0.9375 2.60546875 C1.24821958 20.41358456 13.9176107 32.42998335 25.26953125 45.05078125 C27.26715647 47.30092795 29.15813354 49.62092249 31 52 C31.33 51.01 31.66 50.02 32 49 C32.66 49 33.32 49 34 49 C35.79362465 57.74392018 36.23737365 66.08530089 36 75 C34.46876261 72.18098556 33.65703329 69.61264772 32.9375 66.5 C32.02644318 63.67896111 31.49873568 62.34981461 29.05078125 60.6328125 C26.72933837 59.61594958 24.41044517 58.7806784 22 58 C14.75775886 55.05400361 9.40035431 51.67729556 4 46 C3.113125 45.21625 2.22625 44.4325 1.3125 43.625 C-1.45629719 40.48204103 -2.25499419 38.09753194 -3 34 C-2.67 32.68 -2.34 31.36 -2 30 C-0.35 32.31 1.3 34.62 3 37 C2.06789181 34.20367543 0.83305664 31.83920277 -0.57788086 29.26416016 C-4.0672635 22.79067617 -6.08262612 17.45809108 -5 10 C-4.34 10 -3.68 10 -3 10 C-2.86722656 9.36191406 -2.73445312 8.72382813 -2.59765625 8.06640625 C-2.42105469 7.24011719 -2.24445312 6.41382813 -2.0625 5.5625 C-1.88847656 4.73878906 -1.71445313 3.91507813 -1.53515625 3.06640625 C-1 1 -1 1 0 0 Z " fill="#E42F31" transform="translate(10,13)"/>
<path d="M0 0 C1 3 1 3 0.0625 5.5 C-1.39372385 10.29697268 -1.5319077 15.01727638 -1 20 C-0.34 20.99 0.32 21.98 1 23 C1.99 23 2.98 23 4 23 C4.020625 24.27875 4.04125 25.5575 4.0625 26.875 C4.69363524 33.07787606 8.20470928 37.25340926 12 42 C13.98 41.505 13.98 41.505 16 41 C16.04125 41.969375 16.0825 42.93875 16.125 43.9375 C17.00293591 50.27671372 21.4580247 55.70280181 26 60 C26.268125 59.071875 26.53625 58.14375 26.8125 57.1875 C27.94480421 54.14815711 28.69900511 53.09926383 31 51 C32.89668785 60.14772337 33.24680038 68.92758615 33.125 78.25 C33.11493575 79.59244113 33.10581607 80.93488969 33.09765625 82.27734375 C33.07433912 85.51842489 33.04161552 88.75911102 33 92 C32.01 92.495 32.01 92.495 31 93 C30.12135271 88.38710175 29.95836934 84.01156023 30 79.3125 C30.0556657 72.82048782 29.66207482 66.45522954 29 60 C28.34 60 27.68 60 27 60 C26.67 61.32 26.34 62.64 26 64 C23.32809141 61.41521887 20.98017405 58.78426106 18.75 55.8125 C16.28944322 52.59484882 13.73396697 49.55078948 11 46.5625 C6.88060305 41.98805339 3.39497256 37.12692556 0 32 C-0.42539063 31.42894531 -0.85078125 30.85789062 -1.2890625 30.26953125 C-5.05027616 24.7900653 -4.8057715 18.45809778 -5 12 C-5.99 14.97 -6.98 17.94 -8 21 C-8.66 21 -9.32 21 -10 21 C-9.97679687 22.03640625 -9.95359375 23.0728125 -9.9296875 24.140625 C-9.91092333 25.51040944 -9.89272382 26.8802017 -9.875 28.25 C-9.85824219 28.93191406 -9.84148438 29.61382813 -9.82421875 30.31640625 C-9.78786518 34.0608235 -9.92055651 36.82352727 -12 40 C-12.99 40 -13.98 40 -15 40 C-15 39.01 -15 38.02 -15 37 C-14.34 37 -13.68 37 -13 37 C-13.06960938 36.07960937 -13.13921875 35.15921875 -13.2109375 34.2109375 C-13.72201922 22.26136015 -11.15692675 12.43287438 -3.125 3.125 C-2.10121213 2.06575627 -1.06660582 1.0161156 0 0 Z " fill="#4B0A0D" transform="translate(15,2)"/>
<path d="M0 0 C5.61713514 1.87237838 7.64254492 8.41792948 10.27734375 13.4296875 C13.05946413 19.4691659 13.33133813 24.70338546 13.04296875 31.3125 C12.79370222 33.97195032 12.79370222 33.97195032 14 36 C14.039992 37.99960012 14.04346799 40.00047242 14 42 C12.35 42 10.7 42 9 42 C8.67 41.34 8.34 40.68 8 40 C6.02 42.64 4.04 45.28 2 48 C1.34 47.67 0.68 47.34 0 47 C0.39832031 46.443125 0.79664062 45.88625 1.20703125 45.3125 C7.01800678 36.94243306 9.3953925 30.17408481 10 20 C9.34 20 8.68 20 8 20 C7.34 17.69 6.68 15.38 6 13 C5.92523438 13.58265625 5.85046875 14.1653125 5.7734375 14.765625 C3.75703576 27.33848288 -2.68979295 36.63734896 -11 46 C-11.804375 46.91394531 -12.60875 47.82789063 -13.4375 48.76953125 C-16.86325184 52.61786761 -20.33161526 56.38107663 -24 60 C-22.703271 56.41825826 -21.13180283 53.62063138 -18.875 50.5625 C-16.35179854 46.90018332 -15.29908224 44.55596543 -16 40 C-14.68 40.66 -13.36 41.32 -12 42 C-6.68330063 35.47559085 -3.8730145 30.52616948 -4 22 C-2.68 22 -1.36 22 0 22 C1.5846214 15.25926433 2.40201391 10.53881564 0 4 C0 2.68 0 1.36 0 0 Z " fill="#39080A" transform="translate(90,3)"/>
<path d="M0 0 C0.495 1.485 0.495 1.485 1 3 C0.67 3.639375 0.34 4.27875 0 4.9375 C-1.22866351 6.96525921 -1.22866351 6.96525921 -0.625 9.25 C-0.41875 9.8275 -0.2125 10.405 0 11 C-0.99 11 -1.98 11 -3 11 C-4.1184593 12.55989125 -4.1184593 12.55989125 -5.1875 14.5625 C-8.35832084 19.13456743 -11.92147322 20.47329138 -16.9375 22.375 C-23.50051437 24.90397691 -27.09293845 27.33993234 -30.640625 33.66796875 C-32.12471624 36.21395285 -33.84950126 38.001139 -36 40 C-35.88506243 38.10353002 -35.75760358 36.20781668 -35.625 34.3125 C-35.55539063 33.25675781 -35.48578125 32.20101562 -35.4140625 31.11328125 C-35.00538994 28.04052628 -34.41028781 25.75318986 -33 23 C-29.03304256 20.21468946 -25.20979138 18.70504666 -20.625 17.1875 C-11.38831679 13.93122073 -5.33980292 8.06205539 0 0 Z " fill="#3F0506" transform="translate(96,52)"/>
<path d="M0 0 C3 1 3 1 4.203125 2.7421875 C4.54859375 3.44601563 4.8940625 4.14984375 5.25 4.875 C5.60578125 5.57367188 5.9615625 6.27234375 6.328125 6.9921875 C7 9 7 9 6 12 C5.34 11.34 4.68 10.68 4 10 C1.19834038 16.48717615 0.83592853 22.42794042 1 29.375 C1.17991635 37.01694708 0.45185654 43.68821352 -2 51 C-2.66 51 -3.32 51 -4 51 C-4.50333318 33.51304363 -3.76908758 17.11125666 0 0 Z " fill="#320708" transform="translate(59,54)"/>
<path d="M0 0 C0.33 0 0.66 0 1 0 C1.00257812 0.88300781 1.00515625 1.76601562 1.0078125 2.67578125 C1.29466219 11.57768336 3.05696959 17.59301253 8 25 C7.34 25 6.68 25 6 25 C5.67 26.65 5.34 28.3 5 30 C4.34 30 3.68 30 3 30 C2.67 31.32 2.34 32.64 2 34 C-6.34042553 19.23404255 -6.34042553 19.23404255 -5 10 C-4.34 10 -3.68 10 -3 10 C-2.86722656 9.36191406 -2.73445312 8.72382813 -2.59765625 8.06640625 C-2.42105469 7.24011719 -2.24445312 6.41382813 -2.0625 5.5625 C-1.88847656 4.73878906 -1.71445313 3.91507813 -1.53515625 3.06640625 C-1 1 -1 1 0 0 Z " fill="#D72E2D" transform="translate(10,13)"/>
<path d="M0 0 C2.76223278 2.76223278 2.57856291 5.20706617 3 9 C3.66 9 4.32 9 5 9 C5.82315537 19.95253944 1.93687151 27.0703613 -4 36 C-4.33 34.68 -4.66 33.36 -5 32 C-4.34 32 -3.68 32 -3 32 C-3 31.34 -3 30.68 -3 30 C-3.66 30 -4.32 30 -5 30 C-4.67310188 23.33804173 -4.04790145 17.43520337 -1.69921875 11.1796875 C-0.52087656 7.50641967 -0.30433156 3.83457761 0 0 Z " fill="#DB2E2E" transform="translate(95,14)"/>
<path d="M0 0 C1 3 1 3 0.0625 5.5 C-2.23652504 13.07325896 -1.253016 20.53688449 1 28 C-1 27 -1 27 -2 24 C-2.66 23.67 -3.32 23.34 -4 23 C-4.4140625 20.49609375 -4.4140625 20.49609375 -4.625 17.4375 C-4.73714844 15.91962891 -4.73714844 15.91962891 -4.8515625 14.37109375 C-4.90054687 13.58863281 -4.94953125 12.80617188 -5 12 C-5.99 14.97 -6.98 17.94 -8 21 C-8.66 21 -9.32 21 -10 21 C-9.97679687 22.03640625 -9.95359375 23.0728125 -9.9296875 24.140625 C-9.91092333 25.51040944 -9.89272382 26.8802017 -9.875 28.25 C-9.85824219 28.93191406 -9.84148438 29.61382813 -9.82421875 30.31640625 C-9.78786518 34.0608235 -9.92055651 36.82352727 -12 40 C-12.99 40 -13.98 40 -15 40 C-15 39.01 -15 38.02 -15 37 C-14.34 37 -13.68 37 -13 37 C-13.06960938 36.07960937 -13.13921875 35.15921875 -13.2109375 34.2109375 C-13.72201922 22.26136015 -11.15692675 12.43287438 -3.125 3.125 C-2.10121213 2.06575627 -1.06660582 1.0161156 0 0 Z " fill="#2F0608" transform="translate(15,2)"/>
<path d="M0 0 C1.42354571 4.26101044 0.51002533 6.75842495 -1.37792969 10.71777344 C-4.5491682 15.17965447 -9.3256057 17.23452064 -14.125 19.625 C-15.13949219 20.16511719 -16.15398437 20.70523438 -17.19921875 21.26171875 C-22.5792849 24.06279181 -22.5792849 24.06279181 -25 25 C-25.66 24.67 -26.32 24.34 -27 24 C-20.66666667 17.66666667 -14.33333333 11.33333333 -8 5 C-8 6.32 -8 7.64 -8 9 C-5.06799526 6.14723863 -2.35684596 3.34920216 0 0 Z " fill="#F83033" transform="translate(98,42)"/>
<path d="M0 0 C3 3 6 6 9 9 C9.33 8.34 9.66 7.68 10 7 C15.96348734 12.05352742 21.53105379 17.41711741 27 23 C26.34 23.33 25.68 23.66 25 24 C23.19995117 23.24316406 23.19995117 23.24316406 21.04296875 22.015625 C20.25986328 21.57476562 19.47675781 21.13390625 18.66992188 20.6796875 C17.85072266 20.20789063 17.03152344 19.73609375 16.1875 19.25 C15.37990234 18.79367188 14.57230469 18.33734375 13.74023438 17.8671875 C12.1769818 16.98121634 10.61764228 16.0882969 9.06274414 15.18774414 C7.39334577 14.22649156 5.70342691 13.30093383 4.0078125 12.38671875 C0.8774131 10.22467247 0.69773209 7.61552083 0 4 C0 2.68 0 1.36 0 0 Z " fill="#F83032" transform="translate(7,43)"/>
<path d="M0 0 C0.99 0 1.98 0 3 0 C5.46869996 7.00101907 5.46869996 7.00101907 3.39453125 11.421875 C2.56168149 12.55229051 1.69906787 13.66120464 0.8125 14.75 C0.1326001 15.64017822 0.1326001 15.64017822 -0.56103516 16.54833984 C-6.49595724 24.17663347 -13.1396633 31.20348039 -20 38 C-18.703271 34.41825826 -17.13180283 31.62063138 -14.875 28.5625 C-12.35179854 24.90018332 -11.29908224 22.55596543 -12 18 C-10.68 18.66 -9.36 19.32 -8 20 C-2.68330063 13.47559085 0.1269855 8.52616948 0 0 Z " fill="#520E11" transform="translate(86,25)"/>
<path d="M0 0 C0 4.01710035 -1.23986601 5.74800519 -3.6328125 8.90234375 C-6.75315514 11.66739985 -10.0126807 12.84600354 -13.875 14.3125 C-22.01700066 17.41496626 -25.74071878 21.2520312 -30 29 C-31 27 -31 27 -30.42578125 24.35546875 C-27.46619167 15.93361911 -27.46619167 15.93361911 -23.34375 13.30859375 C-21.3015869 12.51120275 -19.23573741 11.77229038 -17.15234375 11.08984375 C-13.02276767 9.66214644 -9.62030561 7.48747788 -5.9609375 5.13671875 C-4 4 -4 4 -2 4 C-1.34 2.68 -0.68 1.36 0 0 Z " fill="#B82B2D" transform="translate(93,60)"/>
<path d="M0 0 C0.33 0 0.66 0 1 0 C0.88437394 1.39664108 0.757008 2.79231199 0.625 4.1875 C0.55539063 4.96480469 0.48578125 5.74210937 0.4140625 6.54296875 C-0.60777961 12.60654127 -3.50026749 16.00456237 -7.625 20.3125 C-8.3984375 21.13717773 -8.3984375 21.13717773 -9.1875 21.97851562 C-10.45200618 23.32498054 -11.72514922 24.66332535 -13 26 C-14.48387734 22.14191891 -13.59199181 19.72238317 -12 16 C-10.59597381 13.90594955 -9.11158576 11.86413803 -7.5625 9.875 C-6.78003906 8.86179687 -5.99757813 7.84859375 -5.19140625 6.8046875 C-4.46824219 5.87914062 -3.74507812 4.95359375 -3 4 C-2.43152344 3.21882813 -1.86304687 2.43765625 -1.27734375 1.6328125 C-0.85582031 1.09398437 -0.43429688 0.55515625 0 0 Z " fill="#F73032" transform="translate(91,32)"/>
<path d="M0 0 C0.66128906 0.51046875 0.66128906 0.51046875 1.3359375 1.03125 C5.21675271 3.82662647 9.00065909 6.07166871 13.46484375 7.79296875 C26.03546427 12.6651837 26.03546427 12.6651837 29.0859375 16.88671875 C30.11245653 19.67142464 30.81566081 22.04060865 31 25 C30.67 25.66 30.34 26.32 30 27 C29.608125 26.35933594 29.21625 25.71867187 28.8125 25.05859375 C23.98212226 18.07328457 19.40342356 15.49878542 11.7421875 12.55566406 C6.18879014 10.33377923 2.49511614 7.6529975 0 2 C0 1.34 0 0.68 0 0 Z " fill="#CA2F30" transform="translate(12,61)"/>
<path d="M0 0 C0.33 0 0.66 0 1 0 C2.68136857 6.35016879 4.36109656 13.35451828 2.4609375 19.83984375 C1.81040053 22.88854668 2.15884781 25.65386456 2.4375 28.75 C2.53933594 29.92046875 2.64117187 31.0909375 2.74609375 32.296875 C2.82988281 33.18890625 2.91367187 34.0809375 3 35 C-0.24784508 33.94092008 -0.99599233 33.0071513 -2.703125 29.9609375 C-3.21359375 28.77757813 -3.7240625 27.59421875 -4.25 26.375 C-5.03117187 24.59222656 -5.03117187 24.59222656 -5.828125 22.7734375 C-6.40820312 21.40058594 -6.40820312 21.40058594 -7 20 C-6.01 20 -5.02 20 -4 20 C-3.67 19.01 -3.34 18.02 -3 17 C-2.34 19.31 -1.68 21.62 -1 24 C-0.67 16.08 -0.34 8.16 0 0 Z " fill="#32080A" transform="translate(48,70)"/>
<path d="M0 0 C5.48156181 2.491619 8.99222438 6.91468864 12 12 C13.04908727 15.31290717 13.64674515 18.54675362 14 22 C0.94559099 11.6097561 0.94559099 11.6097561 -0.4375 4.8671875 C-0.4375 2.9375 -0.4375 2.9375 0 0 Z " fill="#F53133" transform="translate(15,37)"/>
<path d="M0 0 C-2.89629482 6.55551607 -9.49401756 11.23262914 -16 14 C-18.97526259 14.83783394 -21.95484793 15.47521189 -25 16 C-23.7848778 12.35463339 -22.94385119 12.09890116 -19.6875 10.25 C-18.79417969 9.73695312 -17.90085937 9.22390625 -16.98046875 8.6953125 C-15.99691406 8.13585937 -15.01335937 7.57640625 -14 7 C-12.92363281 6.35804687 -11.84726563 5.71609375 -10.73828125 5.0546875 C-2.25581984 0 -2.25581984 0 0 0 Z " fill="#C12525" transform="translate(93,56)"/>
<path d="M0 0 C0.33 0 0.66 0 1 0 C2.89668785 9.14772337 3.24680038 17.92758615 3.125 27.25 C3.11493575 28.59244113 3.10581607 29.93488969 3.09765625 31.27734375 C3.07433912 34.51842489 3.04161552 37.75911102 3 41 C2.01 41.495 2.01 41.495 1 42 C0.12242247 37.39271794 -0.01607279 33.06841448 0.0625 28.375 C0.12662678 22.35349496 -0.59096336 16.78213738 -1.6171875 10.86328125 C-2.09978147 7.25367535 -1.87932819 4.51731276 -1 1 C-0.67 0.67 -0.34 0.34 0 0 Z " fill="#4F0D11" transform="translate(45,53)"/>
<path d="M0 0 C0.33 0.66 0.66 1.32 1 2 C-2.28962716 10.70967952 -7.04359767 17.18915208 -15 22 C-14.88541307 20.56163249 -14.75790884 19.12429034 -14.625 17.6875 C-14.55539063 16.88699219 -14.48578125 16.08648437 -14.4140625 15.26171875 C-14 13 -14 13 -12 10 C-11.34 10.66 -10.68 11.32 -10 12 C-9.52949219 11.38511719 -9.05898437 10.77023438 -8.57421875 10.13671875 C-7.95160156 9.32847656 -7.32898438 8.52023438 -6.6875 7.6875 C-6.07261719 6.88699219 -5.45773438 6.08648437 -4.82421875 5.26171875 C-3.30083693 3.37298626 -1.75565593 1.66922364 0 0 Z " fill="#F03436" transform="translate(75,53)"/>
<path d="M0 0 C4.59799482 2.25316698 9.00262239 4.81964975 13.4375 7.375 C14.7069043 8.09816406 14.7069043 8.09816406 16.00195312 8.8359375 C20.27165305 11.29678256 24.25932713 13.75859559 28 17 C23.47642469 18.50785844 20.24750333 16.90690182 16 15 C9.70824855 11.08588011 4.2688113 6.06620553 0 0 Z " fill="#C02525" transform="translate(10,54)"/>
<path d="M0 0 C3 1 3 1 4.203125 2.7421875 C4.54859375 3.44601563 4.8940625 4.14984375 5.25 4.875 C5.60578125 5.57367188 5.9615625 6.27234375 6.328125 6.9921875 C7 9 7 9 6 12 C5.34 11.34 4.68 10.68 4 10 C3.01 13.3 2.02 16.6 1 20 C0.34 20 -0.32 20 -1 20 C-1 21.65 -1 23.3 -1 25 C-1.33 25 -1.66 25 -2 25 C-2.27733386 16.4488728 -1.52016163 8.41518047 0 0 Z " fill="#601115" transform="translate(59,54)"/>
<path d="M0 0 C2.2701469 2.85919376 3.96719222 5.71936708 5.5625 9 C5.97628906 9.845625 6.39007813 10.69125 6.81640625 11.5625 C7.20699219 12.366875 7.59757813 13.17125 8 14 C8.66486304 15.33423362 9.33086763 16.66790237 10 18 C6.63279613 16.60667426 5.0140476 15.0210714 3 12 C3.33 14.64 3.66 17.28 4 20 C3.34 20 2.68 20 2 20 C1.67 17.69 1.34 15.38 1 13 C0.34 13 -0.32 13 -1 13 C-2.125 10.6875 -2.125 10.6875 -3 8 C-2.34 7.01 -1.68 6.02 -1 5 C-0.61500109 3.34450469 -0.27206865 1.6777567 0 0 Z " fill="#590A0C" transform="translate(5,33)"/>
<path d="M0 0 C1.41764994 0.93601246 2.83407568 1.8738792 4.25 2.8125 C5.03890625 3.33457031 5.8278125 3.85664062 6.640625 4.39453125 C8.15995018 5.42837669 9.65742429 6.49548522 11.125 7.6015625 C13.08360957 9.12257439 13.08360957 9.12257439 15.75 10.5625 C16.86375 11.2740625 16.86375 11.2740625 18 12 C18 12.66 18 13.32 18 14 C11.6826381 12.49119318 7.21986287 11.24285993 3 6 C2.401875 5.278125 1.80375 4.55625 1.1875 3.8125 C0 2 0 2 0 0 Z " fill="#B72E30" transform="translate(12,61)"/>
<path d="M0 0 C-0.3637442 2.54620938 -0.57966691 3.68180393 -2.671875 5.265625 C-9.6043956 8.54945055 -9.6043956 8.54945055 -14 8 C-14 8.66 -14 9.32 -14 10 C-14.66 10 -15.32 10 -16 10 C-14.9383717 6.94781864 -14.04970979 6.03078618 -11.25 4.296875 C-10.1775 3.78640625 -9.105 3.2759375 -8 2.75 C-6.9275 2.22921875 -5.855 1.7084375 -4.75 1.171875 C-2 0 -2 0 0 0 Z " fill="#310607" transform="translate(84,72)"/>
<path d="M0 0 C-1.26691507 0.67408308 -2.53870749 1.33900497 -3.8125 2 C-4.52019531 2.37125 -5.22789063 2.7425 -5.95703125 3.125 C-8 4 -8 4 -11 4 C-10.77441406 4.56203125 -10.54882812 5.1240625 -10.31640625 5.703125 C-9.87099103 8.93650956 -11.06085275 10.14567321 -12.9375 12.75 C-13.50339844 13.54921875 -14.06929688 14.3484375 -14.65234375 15.171875 C-15.09707031 15.77515625 -15.54179688 16.3784375 -16 17 C-17 15 -17 15 -16.3203125 12.3203125 C-12.6954797 2.6304 -12.6954797 2.6304 -7.375 0.1875 C-4.15522042 -0.98282944 -3.35281996 -1.11760665 0 0 Z " fill="#D73738" transform="translate(79,72)"/>
<path d="M0 0 C3.36060178 2.92697574 4.278097 4.66858201 5 9 C6.47532226 12.2072223 8.04075722 15.06113584 10 18 C9.01 18.33 8.02 18.66 7 19 C6.566875 18.236875 6.13375 17.47375 5.6875 16.6875 C4.22412354 14.0521539 4.22412354 14.0521539 2.4375 12.6875 C0.41117354 10.30876894 0.49372047 8.39324797 0.3125 5.3125 C0.24675781 4.31863281 0.18101563 3.32476562 0.11328125 2.30078125 C0.07589844 1.54152344 0.03851562 0.78226563 0 0 Z " fill="#DC2827" transform="translate(27,50)"/>
<path d="M0 0 C0.33 0 0.66 0 1 0 C1.04898437 0.96421875 1.09796875 1.9284375 1.1484375 2.921875 C1.22320312 4.18515625 1.29796875 5.4484375 1.375 6.75 C1.44460938 8.00296875 1.51421875 9.2559375 1.5859375 10.546875 C1.96663383 13.72173877 2.58035655 15.25230299 4 18 C4.1953125 20.578125 4.1953125 20.578125 4.125 23.25 C4.10695313 24.14203125 4.08890625 25.0340625 4.0703125 25.953125 C4.03550781 26.96632813 4.03550781 26.96632813 4 28 C2 27 2 27 0.91796875 24.0546875 C-0.28101938 19.4583706 -0.48867585 14.8533999 -0.6875 10.125 C-0.75807617 8.825625 -0.75807617 8.825625 -0.83007812 7.5 C-1.05497033 2.79569747 -1.05497033 2.79569747 -1 1 C-0.67 0.67 -0.34 0.34 0 0 Z " fill="#9A181B" transform="translate(10,13)"/>
<path d="M0 0 C3 3 6 6 9 9 C9.33 8.34 9.66 7.68 10 7 C10 7.99 10 8.98 10 10 C5.375 12.125 5.375 12.125 2 11 C0.60955102 7.12137916 0 4.13537997 0 0 Z " fill="#FB3334" transform="translate(7,43)"/>
<path d="M0 0 C11.20295203 1.88191882 11.20295203 1.88191882 16 5 C17.375 7.1875 17.375 7.1875 18 9 C17.01 9.99 16.02 10.98 15 12 C14.67 10.02 14.34 8.04 14 6 C13.360625 5.9175 12.72125 5.835 12.0625 5.75 C7.79458483 4.70479628 3.96892333 2.85908174 0 1 C0 0.67 0 0.34 0 0 Z " fill="#4F0607" transform="translate(25,69)"/>
<path d="M0 0 C2.11067051 4.22134102 2.19218824 6.0288488 2.0625 10.625 C1.78150949 14.97294483 1.78150949 14.97294483 3 19 C3.039992 20.99960012 3.04346799 23.00047242 3 25 C2.67 24.01 2.34 23.02 2 22 C1.34 22 0.68 22 0 22 C0 14.74 0 7.48 0 0 Z " fill="#160305" transform="translate(101,20)"/>
<path d="M0 0 C0.99 0.33 1.98 0.66 3 1 C2.53980469 1.35707031 2.07960938 1.71414062 1.60546875 2.08203125 C-0.63500076 4.75860188 -0.98143276 7.29165281 -1.6875 10.6875 C-1.93886719 11.86699219 -2.19023438 13.04648438 -2.44921875 14.26171875 C-2.63097656 15.16535156 -2.81273437 16.06898437 -3 17 C-3.33 17 -3.66 17 -4 17 C-4 12.05 -4 7.1 -4 2 C-2.68 1.34 -1.36 0.68 0 0 Z " fill="#B22929" transform="translate(63,72)"/>
<path d="M0 0 C2.75874035 2.75874035 2.29943408 4.46676471 2.3125 8.3125 C2.32925781 9.44300781 2.34601563 10.57351562 2.36328125 11.73828125 C1.97122864 15.25832347 1.03261266 17.14147086 -1 20 C-1.66 19.67 -2.32 19.34 -3 19 C-2.7834375 18.13117187 -2.566875 17.26234375 -2.34375 16.3671875 C-2.0653125 15.21476562 -1.786875 14.06234375 -1.5 12.875 C-1.2215625 11.73804688 -0.943125 10.60109375 -0.65625 9.4296875 C-0.03546235 6.18533302 0.12006768 3.29185543 0 0 Z " fill="#240407" transform="translate(92,11)"/>
<path d="M0 0 C0.33 0 0.66 0 1 0 C0.67 4.95 0.34 9.9 0 15 C-0.66 14.67 -1.32 14.34 -2 14 C-2.66 15.32 -3.32 16.64 -4 18 C-4 14.7 -4 11.4 -4 8 C-3.34 8 -2.68 8 -2 8 C-1.855625 7.236875 -1.71125 6.47375 -1.5625 5.6875 C-1 3 -1 3 0 0 Z " fill="#BE2A2A" transform="translate(9,15)"/>
<path d="M0 0 C0.598125 0.309375 1.19625 0.61875 1.8125 0.9375 C4.08956772 2.10209704 4.08956772 2.10209704 7 3 C7 7.62 7 12.24 7 17 C5.18097046 13.36194093 4.02132104 9.99224786 2.87890625 6.12109375 C1.92869548 3.82791843 0.85588385 2.61808258 -1 1 C-0.67 0.67 -0.34 0.34 0 0 Z " fill="#B9302F" transform="translate(39,71)"/>
<path d="M0 0 C0.33 0 0.66 0 1 0 C2.11165232 4.4378561 2.11527763 8.76956386 2.0625 13.3125 C2.05798828 14.05306641 2.05347656 14.79363281 2.04882812 15.55664062 C2.03712175 17.37112899 2.01918898 19.18557534 2 21 C1.34 21.33 0.68 21.66 0 22 C-0.90249856 16.85910079 -0.97986395 12.30273626 -0.5625 7.0625 C-0.51029297 6.37865234 -0.45808594 5.69480469 -0.40429688 4.99023438 C-0.27630102 3.32628831 -0.13912281 1.6630527 0 0 Z " fill="#500A0E" transform="translate(46,73)"/>
<path d="M0 0 C0.33 0 0.66 0 1 0 C1.39325819 6.97669157 0.63096039 12.51656189 -2 19 C-3.98457328 11.78191491 -3.27923298 6.55846595 0 0 Z " fill="#A6191C" transform="translate(94,23)"/>
<path d="M0 0 C1.08644535 4.3457814 0.90680911 4.94960548 -0.9375 8.75 C-1.31777344 9.54921875 -1.69804688 10.3484375 -2.08984375 11.171875 C-2.39019531 11.77515625 -2.69054687 12.3784375 -3 13 C-4.32 11.68 -5.64 10.36 -7 9 C-4.69 6.03 -2.38 3.06 0 0 Z " fill="#E0363A" transform="translate(98,42)"/>
<path d="M0 0 C-0.08984375 1.796875 -0.08984375 1.796875 -1 4 C-3.94140625 5.703125 -3.94140625 5.703125 -7.5625 7.25 C-9.35880859 8.03117187 -9.35880859 8.03117187 -11.19140625 8.828125 C-12.58166016 9.40820312 -12.58166016 9.40820312 -14 10 C-14.33 9.01 -14.66 8.02 -15 7 C-13.5437455 6.32880451 -12.08492133 5.66318193 -10.625 5 C-9.81289062 4.62875 -9.00078125 4.2575 -8.1640625 3.875 C-6 3 -6 3 -4 3 C-4 2.34 -4 1.68 -4 1 C-2 0 -2 0 0 0 Z " fill="#CF2B2B" transform="translate(83,69)"/>
<path d="M0 0 C0.99 0.495 0.99 0.495 2 1 C2 1.66 2 2.32 2 3 C2.66 3 3.32 3 4 3 C4.50512244 4.60256108 5.00391627 6.20711792 5.5 7.8125 C5.7784375 8.70582031 6.056875 9.59914063 6.34375 10.51953125 C7 13 7 13 7 16 C5.68 16.33 4.36 16.66 3 17 C2.67 16.01 2.34 15.02 2 14 C2.99 14 3.98 14 5 14 C4.6390625 13.15695313 4.278125 12.31390625 3.90625 11.4453125 C3.21015625 9.80175781 3.21015625 9.80175781 2.5 8.125 C2.0359375 7.03445312 1.571875 5.94390625 1.09375 4.8203125 C0 2 0 2 0 0 Z " fill="#170305" transform="translate(2,43)"/>
<path d="M0 0 C1.96082839 2.20593193 2.94189697 3.53517573 3.3125 6.5 C2.98921205 9.08630361 2.32079548 10.77115762 1 13 C0.34 13 -0.32 13 -1 13 C-2.125 10.6875 -2.125 10.6875 -3 8 C-2.34 7.01 -1.68 6.02 -1 5 C-0.61500109 3.34450469 -0.27206865 1.6777567 0 0 Z " fill="#3F070A" transform="translate(5,33)"/>
<path d="M0 0 C2.76223278 2.76223278 2.57856291 5.20706617 3 9 C3.66 9 4.32 9 5 9 C5 10.65 5 12.3 5 14 C4.67 13.34 4.34 12.68 4 12 C3.01 12.33 2.02 12.66 1 13 C0.1276588 10.00519083 -0.10829766 7.36424089 -0.0625 4.25 C-0.05347656 3.45078125 -0.04445313 2.6515625 -0.03515625 1.828125 C-0.02355469 1.22484375 -0.01195313 0.6215625 0 0 Z " fill="#B62A28" transform="translate(95,14)"/>
<path d="M0 0 C0.33 0 0.66 0 1 0 C1.125 2.875 1.125 2.875 1 6 C0.34 6.66 -0.32 7.32 -1 8 C-1.66 8 -2.32 8 -3 8 C-4.38232443 9.62626404 -5.71937515 11.2925002 -7 13 C-7.66 12.67 -8.32 12.34 -9 12 C-7 9.33333333 -5 6.66666667 -3 4 C-2.45988281 3.25234375 -1.91976562 2.5046875 -1.36328125 1.734375 C-0.91339844 1.16203125 -0.46351562 0.5896875 0 0 Z " fill="#E63438" transform="translate(91,32)"/>
<path d="M0 0 C0.33 0 0.66 0 1 0 C2.56619765 5.91519291 3.83799783 11.86289826 3 18 C2.34 18.99 1.68 19.98 1 21 C0.25194283 13.97360585 -0.13794954 7.06608191 0 0 Z " fill="#170203" transform="translate(48,70)"/>
<path d="M0 0 C0.78688445 2.77723925 1.11949924 5.22610077 1.09765625 8.109375 C1.09282227 9.24052734 1.09282227 9.24052734 1.08789062 10.39453125 C1.07951172 11.17183594 1.07113281 11.94914062 1.0625 12.75 C1.05798828 13.54277344 1.05347656 14.33554687 1.04882812 15.15234375 C1.03708565 17.10159508 1.01915146 19.05080738 1 21 C0.01 21.33 -0.98 21.66 -2 22 C-2.33 20.68 -2.66 19.36 -3 18 C-2.34 18 -1.68 18 -1 18 C-1.01160156 16.95199219 -1.02320312 15.90398438 -1.03515625 14.82421875 C-1.04453655 13.44531428 -1.0536365 12.06640789 -1.0625 10.6875 C-1.07087891 9.99720703 -1.07925781 9.30691406 -1.08789062 8.59570312 C-1.10307906 5.4516975 -1.00193327 3.00579981 0 0 Z " fill="#0E0304" transform="translate(3,21)"/>
<path d="M0 0 C0.33 0 0.66 0 1 0 C1 4.95 1 9.9 1 15 C-2.51716303 11.48283697 -2.54676163 9.80432667 -3 5 C-2.34 5.66 -1.68 6.32 -1 7 C-0.67 4.69 -0.34 2.38 0 0 Z " fill="#E42D2C" transform="translate(9,22)"/>
<path d="M0 0 C0.33 0 0.66 0 1 0 C0.38065327 9.99497487 0.38065327 9.99497487 -3 13 C-5.1875 13.75 -5.1875 13.75 -7 14 C-5.83024607 11.46553315 -4.52774442 9.31308279 -2.9375 7 C-1.3098164 4.47971572 -0.44658072 2.90277468 0 0 Z " fill="#2D0508" transform="translate(86,31)"/>
<path d="M0 0 C0.33 0 0.66 0 1 0 C1.36629408 4.27343092 0.40814077 6.48812804 -2 10 C-5.2542015 7.16569547 -6.5206753 5.31392226 -7 1 C-5.35 2.65 -3.7 4.3 -2 6 C-1.34 4.02 -0.68 2.04 0 0 Z " fill="#330304" transform="translate(43,56)"/>
<path d="M0 0 C0.99 0.66 1.98 1.32 3 2 C3 4 3 4 1.25 5.8125 C0.5075 6.534375 -0.235 7.25625 -1 8 C-2.35156675 9.65191491 -3.68962066 11.31522656 -5 13 C-5.66 12.67 -6.32 12.34 -7 12 C-6.57847656 11.38511719 -6.15695313 10.77023438 -5.72265625 10.13671875 C-4.90087891 8.92435547 -4.90087891 8.92435547 -4.0625 7.6875 C-3.51722656 6.88699219 -2.97195312 6.08648437 -2.41015625 5.26171875 C-0.86162674 2.9741857 -0.86162674 2.9741857 0 0 Z " fill="#500808" transform="translate(97,38)"/>
<path d="M0 0 C4 5 4 5 8 10 C7.67 10.66 7.34 11.32 7 12 C5.0625 11.375 5.0625 11.375 3 10 C2.25 6.875 2.25 6.875 2 4 C1.34 4 0.68 4 0 4 C0 2.68 0 1.36 0 0 Z " fill="#2B0506" transform="translate(19,34)"/>
<path d="M0 0 C0.66 0.66 1.32 1.32 2 2 C0.4252706 2.72726052 -1.16024279 3.43120422 -2.75 4.125 C-3.63171875 4.51945312 -4.5134375 4.91390625 -5.421875 5.3203125 C-8 6 -8 6 -12 4 C-8.04 2.68 -4.08 1.36 0 0 Z " fill="#560809" transform="translate(79,68)"/>
<path d="M0 0 C4.23429756 1.31061591 8.07407404 2.94356259 12 5 C12 5.66 12 6.32 12 7 C4.61538462 5.64615385 4.61538462 5.64615385 1.5 2.375 C1.005 1.59125 0.51 0.8075 0 0 Z " fill="#C72724" transform="translate(18,68)"/>
<path d="M0 0 C5.06998019 0.65419099 9.41990777 2.8546409 14 5 C13.67 5.66 13.34 6.32 13 7 C10.69 6.34 8.38 5.68 6 5 C6 4.34 6 3.68 6 3 C4.02 2.34 2.04 1.68 0 1 C0 0.67 0 0.34 0 0 Z " fill="#E8393C" transform="translate(24,70)"/>
<path d="M0 0 C2.52588702 2.36292656 3.88820837 3.66462511 5 7 C4.34 7 3.68 7 3 7 C3.33 8.32 3.66 9.64 4 11 C3.34 11 2.68 11 2 11 C0.80712589 7.12315913 0 4.08378077 0 0 Z " fill="#E3393E" transform="translate(7,43)"/>
<path d="M0 0 C2.64465038 3.1254959 3.84414715 6.08788267 5 10 C4.01 10.495 4.01 10.495 3 11 C2.67 9.35 2.34 7.7 2 6 C1.34 6 0.68 6 0 6 C0 4.02 0 2.04 0 0 Z " fill="#360405" transform="translate(61,55)"/>
<path d="M0 0 C2.46800047 1.15173355 4.04783565 2.04783565 6 4 C6 4.99 6 5.98 6 7 C3.53199953 5.84826645 1.95216435 4.95216435 0 3 C0 2.01 0 1.02 0 0 Z " fill="#FA3131" transform="translate(33,61)"/>
<path d="M0 0 C0.33 0 0.66 0 1 0 C1.33 4.29 1.66 8.58 2 13 C0.68 12.34 -0.64 11.68 -2 11 C-1.67 10.34 -1.34 9.68 -1 9 C-0.77532169 7.46331135 -0.59203195 5.92031946 -0.4375 4.375 C-0.35371094 3.55773437 -0.26992188 2.74046875 -0.18359375 1.8984375 C-0.12300781 1.27195312 -0.06242187 0.64546875 0 0 Z " fill="#140406" transform="translate(49,92)"/>
<path d="M0 0 C0.66 0 1.32 0 2 0 C3.28317892 3.84953676 3.06643637 6.94738135 3 11 C0.39665076 8.28817788 0.00543309 7.10866187 -0.1875 3.25 C-0.125625 2.1775 -0.06375 1.105 0 0 Z " fill="#6D1216" transform="translate(45,67)"/>
<path d="M0 0 C0 1.98 0 3.96 0 6 C0.66 6 1.32 6 2 6 C1.67 6.99 1.34 7.98 1 9 C-1 7.25 -1 7.25 -3 5 C-3 3.68 -3 2.36 -3 1 C-1 0 -1 0 0 0 Z " fill="#FB3336" transform="translate(43,66)"/>
<path d="M0 0 C2.50816459 2.50816459 3.61410019 3.90837736 5 7 C4.34 7 3.68 7 3 7 C2.34 7.99 1.68 8.98 1 10 C0.67 6.7 0.34 3.4 0 0 Z " fill="#DE3335" transform="translate(13,31)"/>
<path d="M0 0 C2.5625 2.25 2.5625 2.25 5 5 C4.67 6.32 4.34 7.64 4 9 C2.35 6.69 0.7 4.38 -1 2 C-0.67 1.34 -0.34 0.68 0 0 Z " fill="#4A0809" transform="translate(31,50)"/>
<path d="M0 0 C2.15377564 2.62198774 3.40072174 4.64404172 4 8 C3.01 8.66 2.02 9.32 1 10 C-0.1577506 6.52674819 -0.06866652 3.63932552 0 0 Z " fill="#230406" transform="translate(97,12)"/>
<path d="M0 0 C0.33 0 0.66 0 1 0 C1 3.3 1 6.6 1 10 C0.01 10.495 0.01 10.495 -1 11 C-2.0257259 6.58937864 -2.03684712 4.07369424 0 0 Z " fill="#921614" transform="translate(94,23)"/>
<path d="M0 0 C1.5625 1.125 1.5625 1.125 3 3 C2.6875 6.1875 2.6875 6.1875 2 9 C-0.29013653 5.5647952 -0.17842973 4.014669 0 0 Z " fill="#380207" transform="translate(41,77)"/>
<path d="M0 0 C3.875 1.875 3.875 1.875 5 3 C5.04080783 4.99958364 5.04254356 7.00045254 5 9 C4.7525 8.4225 4.505 7.845 4.25 7.25 C2.83316683 4.6997003 1.12372463 2.98214299 -1 1 C-0.67 0.67 -0.34 0.34 0 0 Z " fill="#B82525" transform="translate(39,71)"/>
<path d="M0 0 C0.65234375 1.796875 0.65234375 1.796875 1 4 C-0.36489377 6.33370072 -2.1419038 8.00594554 -4 10 C-4.33 9.34 -4.66 8.68 -5 8 C-4.00390625 6.0546875 -4.00390625 6.0546875 -2.5625 3.875 C-2.08941406 3.15054688 -1.61632812 2.42609375 -1.12890625 1.6796875 C-0.75636719 1.12539063 -0.38382812 0.57109375 0 0 Z " fill="#410709" transform="translate(71,53)"/>
<path d="M0 0 C1.32 1.32 2.64 2.64 4 4 C3.01 4.66 2.02 5.32 1 6 C0.67 4.02 0.34 2.04 0 0 Z M-2 6 C-1.01 6.33 -0.02 6.66 1 7 C0.34 7.66 -0.32 8.32 -1 9 C-1.33 8.01 -1.66 7.02 -2 6 Z " fill="#310608" transform="translate(8,53)"/>
<path d="M0 0 C-1.39332574 3.36720387 -2.9789286 4.9859524 -6 7 C-5.39816251 4.97954558 -4.72693904 2.97888961 -4 1 C-2 0 -2 0 0 0 Z " fill="#560609" transform="translate(82,44)"/>
<path d="M0 0 C1.25541557 3.76624671 0.37061958 5.37188934 -1 9 C-1.12375 8.360625 -1.2475 7.72125 -1.375 7.0625 C-1.684375 6.0415625 -1.684375 6.0415625 -2 5 C-2.66 4.67 -3.32 4.34 -4 4 C-2.68 2.68 -1.36 1.36 0 0 Z " fill="#190709" transform="translate(15,2)"/>
<path d="M0 0 C0 0.66 0 1.32 0 2 C-0.66 2 -1.32 2 -2 2 C-2 2.66 -2 3.32 -2 4 C-2.99 4 -3.98 4 -5 4 C-5 4.66 -5 5.32 -5 6 C-5.66 6 -6.32 6 -7 6 C-5.52522876 2.59668175 -4.14385429 0 0 0 Z " fill="#460609" transform="translate(75,76)"/>
<path d="M0 0 C0.99 0.495 0.99 0.495 2 1 C2.6328125 3.28515625 2.6328125 3.28515625 3.125 6.0625 C3.29257812 6.98160156 3.46015625 7.90070312 3.6328125 8.84765625 C3.75398438 9.55792969 3.87515625 10.26820312 4 11 C2 9.4375 2 9.4375 0 7 C-0.25 3.25 -0.25 3.25 0 0 Z " fill="#EF3434" transform="translate(25,48)"/>
<path d="" fill="#000000" transform="translate(0,0)"/>
<path d="" fill="#000000" transform="translate(0,0)"/>
<path d="" fill="#000000" transform="translate(0,0)"/>
<path d="" fill="#000000" transform="translate(0,0)"/>
<path d="" fill="#000000" transform="translate(0,0)"/>
<path d="" fill="#000000" transform="translate(0,0)"/>
<path d="" fill="#000000" transform="translate(0,0)"/>
<path d="" fill="#000000" transform="translate(0,0)"/>
<path d="" fill="#000000" transform="translate(0,0)"/>
<path d="" fill="#000000" transform="translate(0,0)"/>
<path d="" fill="#000000" transform="translate(0,0)"/>
<path d="" fill="#000000" transform="translate(0,0)"/>
<path d="" fill="#000000" transform="translate(0,0)"/>
<path d="" fill="#000000" transform="translate(0,0)"/>
<path d="" fill="#000000" transform="translate(0,0)"/>
<path d="" fill="#000000" transform="translate(0,0)"/>
<path d="" fill="#000000" transform="translate(0,0)"/>
<path d="" fill="#000000" transform="translate(0,0)"/>
<path d="" fill="#000000" transform="translate(0,0)"/>
<path d="" fill="#000000" transform="translate(0,0)"/>
<path d="" fill="#000000" transform="translate(0,0)"/>
<path d="" fill="#000000" transform="translate(0,0)"/>
<path d="" fill="#000000" transform="translate(0,0)"/>
<path d="" fill="#000000" transform="translate(0,0)"/>
<path d="" fill="#000000" transform="translate(0,0)"/>
<path d="" fill="#000000" transform="translate(0,0)"/>
<path d="" fill="#000000" transform="translate(0,0)"/>
<path d="" fill="#000000" transform="translate(0,0)"/>
<path d="" fill="#000000" transform="translate(0,0)"/>
<path d="" fill="#000000" transform="translate(0,0)"/>
<path d="" fill="#000000" transform="translate(0,0)"/>
<path d="" fill="#000000" transform="translate(0,0)"/>
<path d="" fill="#000000" transform="translate(0,0)"/>
<path d="" fill="#000000" transform="translate(0,0)"/>
<path d="" fill="#000000" transform="translate(0,0)"/>
<path d="" fill="#000000" transform="translate(0,0)"/>
<path d="" fill="#000000" transform="translate(0,0)"/>
<path d="" fill="#000000" transform="translate(0,0)"/>
<path d="" fill="#000000" transform="translate(0,0)"/>
<path d="" fill="#000000" transform="translate(0,0)"/>
<path d="" fill="#000000" transform="translate(0,0)"/>
<path d="" fill="#000000" transform="translate(0,0)"/>
<path d="" fill="#000000" transform="translate(0,0)"/>
<path d="" fill="#000000" transform="translate(0,0)"/>
<path d="" fill="#000000" transform="translate(0,0)"/>
<path d="" fill="#000000" transform="translate(0,0)"/>
<path d="" fill="#000000" transform="translate(0,0)"/>
<path d="" fill="#000000" transform="translate(0,0)"/>
<path d="" fill="#000000" transform="translate(0,0)"/>
<path d="" fill="#000000" transform="translate(0,0)"/>
<path d="" fill="#000000" transform="translate(0,0)"/>
<path d="" fill="#000000" transform="translate(0,0)"/>
<path d="" fill="#000000" transform="translate(0,0)"/>
<path d="" fill="#000000" transform="translate(0,0)"/>
<path d="" fill="#000000" transform="translate(0,0)"/>
<path d="" fill="#000000" transform="translate(0,0)"/>
<path d="" fill="#000000" transform="translate(0,0)"/>
<path d="" fill="#000000" transform="translate(0,0)"/>
<path d="" fill="#000000" transform="translate(0,0)"/>
<path d="" fill="#000000" transform="translate(0,0)"/>
<path d="" fill="#000000" transform="translate(0,0)"/>
<path d="" fill="#000000" transform="translate(0,0)"/>
<path d="" fill="#000000" transform="translate(0,0)"/>
<path d="" fill="#000000" transform="translate(0,0)"/>
<path d="" fill="#000000" transform="translate(0,0)"/>
<path d="" fill="#000000" transform="translate(0,0)"/>
<path d="" fill="#000000" transform="translate(0,0)"/>
<path d="" fill="#000000" transform="translate(0,0)"/>
<path d="" fill="#000000" transform="translate(0,0)"/>
<path d="" fill="#000000" transform="translate(0,0)"/>
<path d="" fill="#000000" transform="translate(0,0)"/>
<path d="" fill="#000000" transform="translate(0,0)"/>
<path d="" fill="#000000" transform="translate(0,0)"/>
<path d="" fill="#000000" transform="translate(0,0)"/>
<path d="" fill="#000000" transform="translate(0,0)"/>
<path d="" fill="#000000" transform="translate(0,0)"/>
</svg>
